<mxfile host="65bd71144e">
    <diagram name="Página-1" id="JDhl4lXXsC-M0LNHBiF1">
        <mxGraphModel dx="792" dy="435" grid="1" gridSize="10" guides="1" tooltips="1" connect="1" arrows="1" fold="1" page="1" pageScale="1" pageWidth="827" pageHeight="1169" math="0" shadow="0">
            <root>
                <mxCell id="0"/>
                <mxCell id="1" parent="0"/>
                <mxCell id="5qGD1oRil_xxfWdZ3Xh3-1" value="Miembro/usuario" style="rounded=1;whiteSpace=wrap;html=1;" parent="1" vertex="1">
                    <mxGeometry x="230" y="120" width="120" height="60" as="geometry"/>
                </mxCell>
                <mxCell id="5qGD1oRil_xxfWdZ3Xh3-2" value="Interfaz/Frontend" style="rounded=1;whiteSpace=wrap;html=1;" parent="1" vertex="1">
                    <mxGeometry x="430" y="120" width="120" height="60" as="geometry"/>
                </mxCell>
                <mxCell id="5qGD1oRil_xxfWdZ3Xh3-3" value="API de Autenticación&amp;nbsp;&lt;br&gt;(Server Auth)" style="rounded=1;whiteSpace=wrap;html=1;" parent="1" vertex="1">
                    <mxGeometry x="640" y="120" width="120" height="60" as="geometry"/>
                </mxCell>
                <mxCell id="5qGD1oRil_xxfWdZ3Xh3-4" value="API gestora de archivos&lt;br&gt;(Server files)" style="rounded=1;whiteSpace=wrap;html=1;" parent="1" vertex="1">
                    <mxGeometry x="1010" y="120" width="120" height="60" as="geometry"/>
                </mxCell>
                <mxCell id="5qGD1oRil_xxfWdZ3Xh3-5" value="Sistema de Archivos" style="rounded=1;whiteSpace=wrap;html=1;" parent="1" vertex="1">
                    <mxGeometry x="1420" y="120" width="120" height="60" as="geometry"/>
                </mxCell>
                <mxCell id="5qGD1oRil_xxfWdZ3Xh3-18" value="MongoDB Auth" style="rounded=1;whiteSpace=wrap;html=1;" parent="1" vertex="1">
                    <mxGeometry x="840" y="120" width="120" height="60" as="geometry"/>
                </mxCell>
                <mxCell id="5qGD1oRil_xxfWdZ3Xh3-19" value="MongoDB Cloud" style="rounded=1;whiteSpace=wrap;html=1;" parent="1" vertex="1">
                    <mxGeometry x="1210" y="120" width="120" height="60" as="geometry"/>
                </mxCell>
                <mxCell id="5qGD1oRil_xxfWdZ3Xh3-21" value="Miembro/usuario" style="rounded=1;whiteSpace=wrap;html=1;" parent="1" vertex="1">
                    <mxGeometry x="230" y="940" width="120" height="60" as="geometry"/>
                </mxCell>
                <mxCell id="5qGD1oRil_xxfWdZ3Xh3-22" value="Interfaz/Frontend" style="rounded=1;whiteSpace=wrap;html=1;" parent="1" vertex="1">
                    <mxGeometry x="430" y="940" width="120" height="60" as="geometry"/>
                </mxCell>
                <mxCell id="5qGD1oRil_xxfWdZ3Xh3-23" value="API de Autenticación&amp;nbsp;&lt;br&gt;(Server Auth)" style="rounded=1;whiteSpace=wrap;html=1;" parent="1" vertex="1">
                    <mxGeometry x="640" y="940" width="120" height="60" as="geometry"/>
                </mxCell>
                <mxCell id="5qGD1oRil_xxfWdZ3Xh3-24" value="API gestora de archivos&lt;br&gt;(Server files)" style="rounded=1;whiteSpace=wrap;html=1;" parent="1" vertex="1">
                    <mxGeometry x="1010" y="940" width="120" height="60" as="geometry"/>
                </mxCell>
                <mxCell id="5qGD1oRil_xxfWdZ3Xh3-25" value="Sistema de Archivos" style="rounded=1;whiteSpace=wrap;html=1;" parent="1" vertex="1">
                    <mxGeometry x="1420" y="940" width="120" height="60" as="geometry"/>
                </mxCell>
                <mxCell id="5qGD1oRil_xxfWdZ3Xh3-26" value="MongoDb AUTH" style="rounded=1;whiteSpace=wrap;html=1;" parent="1" vertex="1">
                    <mxGeometry x="840" y="940" width="120" height="60" as="geometry"/>
                </mxCell>
                <mxCell id="5qGD1oRil_xxfWdZ3Xh3-27" value="MongoDB Cloud" style="rounded=1;whiteSpace=wrap;html=1;" parent="1" vertex="1">
                    <mxGeometry x="1210" y="940" width="120" height="60" as="geometry"/>
                </mxCell>
                <mxCell id="5qGD1oRil_xxfWdZ3Xh3-31" value="" style="endArrow=none;dashed=1;html=1;dashPattern=1 3;strokeWidth=2;rounded=0;exitX=0;exitY=0.5;exitDx=0;exitDy=0;entryX=0.5;entryY=0;entryDx=0;entryDy=0;" parent="1" source="5qGD1oRil_xxfWdZ3Xh3-39" target="5qGD1oRil_xxfWdZ3Xh3-21" edge="1">
                    <mxGeometry width="50" height="50" relative="1" as="geometry">
                        <mxPoint x="530" y="380" as="sourcePoint"/>
                        <mxPoint x="580" y="330" as="targetPoint"/>
                    </mxGeometry>
                </mxCell>
                <mxCell id="5qGD1oRil_xxfWdZ3Xh3-32" value="" style="endArrow=none;dashed=1;html=1;dashPattern=1 3;strokeWidth=2;rounded=0;exitX=0;exitY=0.5;exitDx=0;exitDy=0;entryX=0.5;entryY=0;entryDx=0;entryDy=0;" parent="1" source="5qGD1oRil_xxfWdZ3Xh3-43" target="5qGD1oRil_xxfWdZ3Xh3-22" edge="1">
                    <mxGeometry width="50" height="50" relative="1" as="geometry">
                        <mxPoint x="710" y="350" as="sourcePoint"/>
                        <mxPoint x="490" y="1003.0476888020834" as="targetPoint"/>
                    </mxGeometry>
                </mxCell>
                <mxCell id="5qGD1oRil_xxfWdZ3Xh3-34" value="" style="endArrow=none;dashed=1;html=1;dashPattern=1 3;strokeWidth=2;rounded=0;exitX=0;exitY=0.5;exitDx=0;exitDy=0;entryX=0.5;entryY=0;entryDx=0;entryDy=0;" parent="1" source="CipsPqIhGQeJuf70R6U5-31" target="5qGD1oRil_xxfWdZ3Xh3-23" edge="1">
                    <mxGeometry width="50" height="50" relative="1" as="geometry">
                        <mxPoint x="940" y="480" as="sourcePoint"/>
                        <mxPoint x="990" y="430" as="targetPoint"/>
                    </mxGeometry>
                </mxCell>
                <mxCell id="5qGD1oRil_xxfWdZ3Xh3-35" value="" style="endArrow=none;dashed=1;html=1;dashPattern=1 3;strokeWidth=2;rounded=0;entryX=0.5;entryY=1;entryDx=0;entryDy=0;exitX=1;exitY=0.5;exitDx=0;exitDy=0;" parent="1" target="5qGD1oRil_xxfWdZ3Xh3-18" edge="1">
                    <mxGeometry width="50" height="50" relative="1" as="geometry">
                        <mxPoint x="900" y="275" as="sourcePoint"/>
                        <mxPoint x="1190" y="520" as="targetPoint"/>
                    </mxGeometry>
                </mxCell>
                <mxCell id="5qGD1oRil_xxfWdZ3Xh3-36" value="" style="endArrow=none;dashed=1;html=1;dashPattern=1 3;strokeWidth=2;rounded=0;exitX=1;exitY=0.5;exitDx=0;exitDy=0;entryX=0.5;entryY=0;entryDx=0;entryDy=0;" parent="1" source="CipsPqIhGQeJuf70R6U5-26" target="5qGD1oRil_xxfWdZ3Xh3-24" edge="1">
                    <mxGeometry width="50" height="50" relative="1" as="geometry">
                        <mxPoint x="1300" y="300" as="sourcePoint"/>
                        <mxPoint x="1350" y="250" as="targetPoint"/>
                    </mxGeometry>
                </mxCell>
                <mxCell id="5qGD1oRil_xxfWdZ3Xh3-37" value="" style="endArrow=none;dashed=1;html=1;dashPattern=1 3;strokeWidth=2;rounded=0;exitX=0.5;exitY=1;exitDx=0;exitDy=0;entryX=0.5;entryY=0;entryDx=0;entryDy=0;" parent="1" source="5qGD1oRil_xxfWdZ3Xh3-19" target="5qGD1oRil_xxfWdZ3Xh3-27" edge="1">
                    <mxGeometry width="50" height="50" relative="1" as="geometry">
                        <mxPoint x="1300" y="390" as="sourcePoint"/>
                        <mxPoint x="1350" y="340" as="targetPoint"/>
                    </mxGeometry>
                </mxCell>
                <mxCell id="5qGD1oRil_xxfWdZ3Xh3-38" value="" style="endArrow=none;dashed=1;html=1;dashPattern=1 3;strokeWidth=2;rounded=0;exitX=1;exitY=0.75;exitDx=0;exitDy=0;entryX=0.5;entryY=0;entryDx=0;entryDy=0;" parent="1" source="CipsPqIhGQeJuf70R6U5-24" target="5qGD1oRil_xxfWdZ3Xh3-25" edge="1">
                    <mxGeometry width="50" height="50" relative="1" as="geometry">
                        <mxPoint x="1360" y="350" as="sourcePoint"/>
                        <mxPoint x="1410" y="300" as="targetPoint"/>
                    </mxGeometry>
                </mxCell>
                <mxCell id="5qGD1oRil_xxfWdZ3Xh3-41" value="" style="endArrow=none;dashed=1;html=1;dashPattern=1 3;strokeWidth=2;rounded=0;exitX=0.5;exitY=1;exitDx=0;exitDy=0;entryX=1;entryY=0.5;entryDx=0;entryDy=0;" parent="1" source="5qGD1oRil_xxfWdZ3Xh3-1" target="5qGD1oRil_xxfWdZ3Xh3-39" edge="1">
                    <mxGeometry width="50" height="50" relative="1" as="geometry">
                        <mxPoint x="290" y="180" as="sourcePoint"/>
                        <mxPoint x="290" y="1010" as="targetPoint"/>
                    </mxGeometry>
                </mxCell>
                <mxCell id="5qGD1oRil_xxfWdZ3Xh3-39" value="" style="rounded=1;whiteSpace=wrap;html=1;rotation=-90;" parent="1" vertex="1">
                    <mxGeometry x="230" y="270" width="120" height="10" as="geometry"/>
                </mxCell>
                <mxCell id="5qGD1oRil_xxfWdZ3Xh3-42" value="" style="endArrow=classic;html=1;rounded=0;exitX=0.949;exitY=1;exitDx=0;exitDy=0;entryX=1;entryY=0;entryDx=0;entryDy=0;exitPerimeter=0;" parent="1" source="5qGD1oRil_xxfWdZ3Xh3-39" target="5qGD1oRil_xxfWdZ3Xh3-43" edge="1">
                    <mxGeometry width="50" height="50" relative="1" as="geometry">
                        <mxPoint x="510" y="460" as="sourcePoint"/>
                        <mxPoint x="480" y="225" as="targetPoint"/>
                    </mxGeometry>
                </mxCell>
                <mxCell id="5qGD1oRil_xxfWdZ3Xh3-44" value="" style="endArrow=none;dashed=1;html=1;dashPattern=1 3;strokeWidth=2;rounded=0;exitX=0.5;exitY=1;exitDx=0;exitDy=0;entryX=1;entryY=0.5;entryDx=0;entryDy=0;" parent="1" source="5qGD1oRil_xxfWdZ3Xh3-2" target="5qGD1oRil_xxfWdZ3Xh3-43" edge="1">
                    <mxGeometry width="50" height="50" relative="1" as="geometry">
                        <mxPoint x="490" y="180" as="sourcePoint"/>
                        <mxPoint x="490" y="1010" as="targetPoint"/>
                    </mxGeometry>
                </mxCell>
                <mxCell id="5qGD1oRil_xxfWdZ3Xh3-43" value="" style="rounded=1;whiteSpace=wrap;html=1;rotation=-90;" parent="1" vertex="1">
                    <mxGeometry x="475" y="230" width="30" height="10" as="geometry"/>
                </mxCell>
                <mxCell id="5qGD1oRil_xxfWdZ3Xh3-45" value="Llena un formulario" style="text;html=1;align=center;verticalAlign=middle;whiteSpace=wrap;rounded=0;" parent="1" vertex="1">
                    <mxGeometry x="320" y="190" width="124" height="30" as="geometry"/>
                </mxCell>
                <mxCell id="5qGD1oRil_xxfWdZ3Xh3-46" value="" style="endArrow=classic;html=1;rounded=0;exitX=0;exitY=1;exitDx=0;exitDy=0;" parent="1" source="5qGD1oRil_xxfWdZ3Xh3-43" edge="1">
                    <mxGeometry width="50" height="50" relative="1" as="geometry">
                        <mxPoint x="540" y="300" as="sourcePoint"/>
                        <mxPoint x="690" y="250" as="targetPoint"/>
                    </mxGeometry>
                </mxCell>
                <mxCell id="5qGD1oRil_xxfWdZ3Xh3-48" value="POST /create_account" style="text;html=1;align=center;verticalAlign=middle;whiteSpace=wrap;rounded=0;" parent="1" vertex="1">
                    <mxGeometry x="525" y="225" width="130" height="20" as="geometry"/>
                </mxCell>
                <mxCell id="5qGD1oRil_xxfWdZ3Xh3-52" value="" style="endArrow=none;dashed=1;html=1;dashPattern=1 3;strokeWidth=2;rounded=0;entryX=0;entryY=0.5;entryDx=0;entryDy=0;exitX=1;exitY=0.5;exitDx=0;exitDy=0;" parent="1" source="CipsPqIhGQeJuf70R6U5-4" edge="1">
                    <mxGeometry width="50" height="50" relative="1" as="geometry">
                        <mxPoint x="900" y="1010" as="sourcePoint"/>
                        <mxPoint x="900" y="314.05999999999995" as="targetPoint"/>
                    </mxGeometry>
                </mxCell>
                <mxCell id="5qGD1oRil_xxfWdZ3Xh3-64" value="" style="endArrow=none;dashed=1;html=1;dashPattern=1 3;strokeWidth=2;rounded=0;exitX=0.5;exitY=1;exitDx=0;exitDy=0;entryX=1;entryY=0.5;entryDx=0;entryDy=0;" parent="1" source="5qGD1oRil_xxfWdZ3Xh3-3" edge="1">
                    <mxGeometry width="50" height="50" relative="1" as="geometry">
                        <mxPoint x="700" y="180" as="sourcePoint"/>
                        <mxPoint x="700.0050000000001" y="246.255" as="targetPoint"/>
                    </mxGeometry>
                </mxCell>
                <mxCell id="5qGD1oRil_xxfWdZ3Xh3-63" value="" style="rounded=1;whiteSpace=wrap;html=1;rotation=-90;" parent="1" vertex="1">
                    <mxGeometry x="680.8" y="324.83" width="38.41" height="10" as="geometry"/>
                </mxCell>
                <mxCell id="5qGD1oRil_xxfWdZ3Xh3-65" value="" style="endArrow=classic;html=1;rounded=0;entryX=0.931;entryY=1.039;entryDx=0;entryDy=0;exitX=0;exitY=0;exitDx=0;exitDy=0;entryPerimeter=0;dashed=1;" parent="1" target="5qGD1oRil_xxfWdZ3Xh3-63" edge="1">
                    <mxGeometry width="50" height="50" relative="1" as="geometry">
                        <mxPoint x="895" y="314.05999999999995" as="sourcePoint"/>
                        <mxPoint x="820" y="290" as="targetPoint"/>
                    </mxGeometry>
                </mxCell>
                <mxCell id="5qGD1oRil_xxfWdZ3Xh3-67" value="" style="endArrow=none;dashed=1;html=1;dashPattern=1 3;strokeWidth=2;rounded=0;entryX=0;entryY=0.5;entryDx=0;entryDy=0;exitX=1;exitY=0.5;exitDx=0;exitDy=0;" parent="1" source="5qGD1oRil_xxfWdZ3Xh3-63" edge="1">
                    <mxGeometry width="50" height="50" relative="1" as="geometry">
                        <mxPoint x="780" y="330" as="sourcePoint"/>
                        <mxPoint x="700.0050000000001" y="275.005" as="targetPoint"/>
                    </mxGeometry>
                </mxCell>
                <mxCell id="5qGD1oRil_xxfWdZ3Xh3-71" value="" style="rounded=1;whiteSpace=wrap;html=1;rotation=-90;" parent="1" vertex="1">
                    <mxGeometry x="880.71" y="290.7" width="38.59" height="10" as="geometry"/>
                </mxCell>
                <mxCell id="5qGD1oRil_xxfWdZ3Xh3-72" value="" style="rounded=1;whiteSpace=wrap;html=1;rotation=-90;" parent="1" vertex="1">
                    <mxGeometry x="681.41" y="260" width="37.19" height="10" as="geometry"/>
                </mxCell>
                <mxCell id="5qGD1oRil_xxfWdZ3Xh3-73" value="" style="endArrow=classic;html=1;rounded=0;exitX=0;exitY=1;exitDx=0;exitDy=0;entryX=0.834;entryY=-0.04;entryDx=0;entryDy=0;entryPerimeter=0;" parent="1" source="5qGD1oRil_xxfWdZ3Xh3-72" target="5qGD1oRil_xxfWdZ3Xh3-71" edge="1">
                    <mxGeometry width="50" height="50" relative="1" as="geometry">
                        <mxPoint x="820" y="250" as="sourcePoint"/>
                        <mxPoint x="870" y="200" as="targetPoint"/>
                    </mxGeometry>
                </mxCell>
                <mxCell id="5qGD1oRil_xxfWdZ3Xh3-74" value="obtener por email" style="text;html=1;align=center;verticalAlign=middle;whiteSpace=wrap;rounded=0;" parent="1" vertex="1">
                    <mxGeometry x="740" y="260" width="121.4" height="20" as="geometry"/>
                </mxCell>
                <mxCell id="5qGD1oRil_xxfWdZ3Xh3-75" value="objeto usuario o null" style="text;html=1;align=center;verticalAlign=middle;whiteSpace=wrap;rounded=0;" parent="1" vertex="1">
                    <mxGeometry x="730.7" y="320" width="140" height="12.82" as="geometry"/>
                </mxCell>
                <mxCell id="5qGD1oRil_xxfWdZ3Xh3-77" value="Flujo alternativo" style="shape=umlFrame;whiteSpace=wrap;html=1;pointerEvents=0;recursiveResize=0;container=1;collapsible=0;width=170;" parent="1" vertex="1">
                    <mxGeometry x="440" y="290.7" width="300" height="589.3" as="geometry"/>
                </mxCell>
                <mxCell id="5qGD1oRil_xxfWdZ3Xh3-78" value="Si existe email registrado" style="text;html=1;" parent="5qGD1oRil_xxfWdZ3Xh3-77" vertex="1">
                    <mxGeometry width="150" height="20" relative="1" as="geometry">
                        <mxPoint x="60" y="29" as="offset"/>
                    </mxGeometry>
                </mxCell>
                <mxCell id="5qGD1oRil_xxfWdZ3Xh3-79" value="Sino" style="line;strokeWidth=1;dashed=1;labelPosition=center;verticalLabelPosition=bottom;align=left;verticalAlign=top;spacingLeft=20;spacingTop=15;html=1;whiteSpace=wrap;" parent="5qGD1oRil_xxfWdZ3Xh3-77" vertex="1">
                    <mxGeometry y="125" width="290" height="10" as="geometry"/>
                </mxCell>
                <mxCell id="5qGD1oRil_xxfWdZ3Xh3-81" value="" style="rounded=1;whiteSpace=wrap;html=1;rotation=-90;" parent="5qGD1oRil_xxfWdZ3Xh3-77" vertex="1">
                    <mxGeometry x="20.88" y="79.47" width="56.81" height="9.65" as="geometry"/>
                </mxCell>
                <mxCell id="5qGD1oRil_xxfWdZ3Xh3-83" value="405 Error&amp;nbsp;" style="text;html=1;align=center;verticalAlign=middle;whiteSpace=wrap;rounded=0;" parent="5qGD1oRil_xxfWdZ3Xh3-77" vertex="1">
                    <mxGeometry x="115" y="59.12" width="60" height="30" as="geometry"/>
                </mxCell>
                <mxCell id="5qGD1oRil_xxfWdZ3Xh3-86" value="" style="rounded=1;whiteSpace=wrap;html=1;rotation=-90;" parent="5qGD1oRil_xxfWdZ3Xh3-77" vertex="1">
                    <mxGeometry x="240.4" y="159.7" width="39.21" height="10" as="geometry"/>
                </mxCell>
                <mxCell id="CipsPqIhGQeJuf70R6U5-10" value="" style="rounded=1;whiteSpace=wrap;html=1;rotation=-90;" parent="5qGD1oRil_xxfWdZ3Xh3-77" vertex="1">
                    <mxGeometry x="20.88" y="529.3" width="56.81" height="9.65" as="geometry"/>
                </mxCell>
                <mxCell id="CipsPqIhGQeJuf70R6U5-7" value="" style="rounded=1;whiteSpace=wrap;html=1;rotation=-90;" parent="5qGD1oRil_xxfWdZ3Xh3-77" vertex="1">
                    <mxGeometry x="243.92" y="225.37" width="32.15" height="10" as="geometry"/>
                </mxCell>
                <mxCell id="CipsPqIhGQeJuf70R6U5-8" value="" style="endArrow=none;dashed=1;html=1;dashPattern=1 3;strokeWidth=2;rounded=0;exitX=0;exitY=0.5;exitDx=0;exitDy=0;entryX=1;entryY=0.5;entryDx=0;entryDy=0;" parent="5qGD1oRil_xxfWdZ3Xh3-77" source="5qGD1oRil_xxfWdZ3Xh3-86" target="CipsPqIhGQeJuf70R6U5-7" edge="1">
                    <mxGeometry width="50" height="50" relative="1" as="geometry">
                        <mxPoint x="260" y="184.3" as="sourcePoint"/>
                        <mxPoint x="260" y="719.3" as="targetPoint"/>
                    </mxGeometry>
                </mxCell>
                <mxCell id="CipsPqIhGQeJuf70R6U5-11" value="" style="endArrow=classic;html=1;rounded=0;exitX=0;exitY=0;exitDx=0;exitDy=0;" parent="5qGD1oRil_xxfWdZ3Xh3-77" source="CipsPqIhGQeJuf70R6U5-7" edge="1">
                    <mxGeometry width="50" height="50" relative="1" as="geometry">
                        <mxPoint x="200" y="259.3" as="sourcePoint"/>
                        <mxPoint x="621.066650390625" y="246.3" as="targetPoint"/>
                    </mxGeometry>
                </mxCell>
                <mxCell id="CipsPqIhGQeJuf70R6U5-38" value="Rediccion al&lt;div&gt;&amp;nbsp;inicio de sesión&lt;/div&gt;" style="text;html=1;align=center;verticalAlign=middle;resizable=0;points=[];autosize=1;strokeColor=none;fillColor=none;rotation=-90;" parent="5qGD1oRil_xxfWdZ3Xh3-77" vertex="1">
                    <mxGeometry x="-32.31" y="514.1300000000001" width="110" height="40" as="geometry"/>
                </mxCell>
                <mxCell id="5qGD1oRil_xxfWdZ3Xh3-82" value="" style="endArrow=classic;html=1;rounded=0;entryX=1;entryY=1;entryDx=0;entryDy=0;exitX=0;exitY=0;exitDx=0;exitDy=0;" parent="1" source="5qGD1oRil_xxfWdZ3Xh3-63" target="5qGD1oRil_xxfWdZ3Xh3-81" edge="1">
                    <mxGeometry width="50" height="50" relative="1" as="geometry">
                        <mxPoint x="590" y="410" as="sourcePoint"/>
                        <mxPoint x="640" y="360" as="targetPoint"/>
                    </mxGeometry>
                </mxCell>
                <mxCell id="5qGD1oRil_xxfWdZ3Xh3-87" value="" style="endArrow=none;dashed=1;html=1;dashPattern=1 3;strokeWidth=2;rounded=0;exitX=0;exitY=0.5;exitDx=0;exitDy=0;entryX=1;entryY=0.5;entryDx=0;entryDy=0;" parent="1" source="5qGD1oRil_xxfWdZ3Xh3-63" target="5qGD1oRil_xxfWdZ3Xh3-86" edge="1">
                    <mxGeometry width="50" height="50" relative="1" as="geometry">
                        <mxPoint x="700" y="349" as="sourcePoint"/>
                        <mxPoint x="700" y="1010" as="targetPoint"/>
                    </mxGeometry>
                </mxCell>
                <mxCell id="CipsPqIhGQeJuf70R6U5-3" value="" style="endArrow=classic;html=1;rounded=0;exitX=0;exitY=1;exitDx=0;exitDy=0;entryX=0.889;entryY=0.016;entryDx=0;entryDy=0;entryPerimeter=0;" parent="1" source="5qGD1oRil_xxfWdZ3Xh3-86" target="CipsPqIhGQeJuf70R6U5-4" edge="1">
                    <mxGeometry width="50" height="50" relative="1" as="geometry">
                        <mxPoint x="670" y="410" as="sourcePoint"/>
                        <mxPoint x="890" y="474" as="targetPoint"/>
                    </mxGeometry>
                </mxCell>
                <mxCell id="CipsPqIhGQeJuf70R6U5-5" value="" style="endArrow=none;dashed=1;html=1;dashPattern=1 3;strokeWidth=2;rounded=0;entryX=0;entryY=0.5;entryDx=0;entryDy=0;exitX=0.5;exitY=0;exitDx=0;exitDy=0;" parent="1" source="5qGD1oRil_xxfWdZ3Xh3-26" target="CipsPqIhGQeJuf70R6U5-4" edge="1">
                    <mxGeometry width="50" height="50" relative="1" as="geometry">
                        <mxPoint x="900" y="1010" as="sourcePoint"/>
                        <mxPoint x="900" y="314.05999999999995" as="targetPoint"/>
                    </mxGeometry>
                </mxCell>
                <mxCell id="CipsPqIhGQeJuf70R6U5-4" value="" style="rounded=1;whiteSpace=wrap;html=1;rotation=-90;" parent="1" vertex="1">
                    <mxGeometry x="882.51" y="482.87" width="34.82" height="10" as="geometry"/>
                </mxCell>
                <mxCell id="CipsPqIhGQeJuf70R6U5-6" value="crear el usuario" style="text;html=1;align=center;verticalAlign=middle;whiteSpace=wrap;rounded=0;" parent="1" vertex="1">
                    <mxGeometry x="751.4" y="440" width="110" height="30" as="geometry"/>
                </mxCell>
                <mxCell id="CipsPqIhGQeJuf70R6U5-9" value="" style="endArrow=classic;html=1;rounded=0;entryX=0.918;entryY=1.029;entryDx=0;entryDy=0;exitX=0;exitY=0;exitDx=0;exitDy=0;entryPerimeter=0;dashed=1;" parent="1" source="CipsPqIhGQeJuf70R6U5-4" target="CipsPqIhGQeJuf70R6U5-7" edge="1">
                    <mxGeometry width="50" height="50" relative="1" as="geometry">
                        <mxPoint x="830" y="540" as="sourcePoint"/>
                        <mxPoint x="880" y="490" as="targetPoint"/>
                    </mxGeometry>
                </mxCell>
                <mxCell id="CipsPqIhGQeJuf70R6U5-14" value="" style="rounded=1;whiteSpace=wrap;html=1;rotation=90;" parent="1" vertex="1">
                    <mxGeometry x="1052.5" y="547.5" width="35" height="10" as="geometry"/>
                </mxCell>
                <mxCell id="CipsPqIhGQeJuf70R6U5-15" value="POST /new_account" style="text;html=1;align=center;verticalAlign=middle;resizable=0;points=[];autosize=1;strokeColor=none;fillColor=none;" parent="1" vertex="1">
                    <mxGeometry x="917.3299999999999" y="500" width="130" height="30" as="geometry"/>
                </mxCell>
                <mxCell id="CipsPqIhGQeJuf70R6U5-16" value="" style="endArrow=classic;html=1;rounded=0;exitX=1;exitY=0;exitDx=0;exitDy=0;" parent="1" source="CipsPqIhGQeJuf70R6U5-14" edge="1">
                    <mxGeometry width="50" height="50" relative="1" as="geometry">
                        <mxPoint x="1110" y="420" as="sourcePoint"/>
                        <mxPoint x="1260" y="570" as="targetPoint"/>
                    </mxGeometry>
                </mxCell>
                <mxCell id="CipsPqIhGQeJuf70R6U5-17" value="agregar un documento folder" style="text;html=1;align=center;verticalAlign=middle;whiteSpace=wrap;rounded=0;" parent="1" vertex="1">
                    <mxGeometry x="1101" y="500" width="140" height="30" as="geometry"/>
                </mxCell>
                <mxCell id="CipsPqIhGQeJuf70R6U5-19" value="" style="endArrow=none;dashed=1;html=1;dashPattern=1 3;strokeWidth=2;rounded=0;exitX=0.5;exitY=1;exitDx=0;exitDy=0;" parent="1" source="5qGD1oRil_xxfWdZ3Xh3-4" edge="1">
                    <mxGeometry width="50" height="50" relative="1" as="geometry">
                        <mxPoint x="1070" y="180" as="sourcePoint"/>
                        <mxPoint x="1070" y="540" as="targetPoint"/>
                    </mxGeometry>
                </mxCell>
                <mxCell id="CipsPqIhGQeJuf70R6U5-18" value="" style="rounded=1;whiteSpace=wrap;html=1;rotation=90;" parent="1" vertex="1">
                    <mxGeometry x="1052.5" y="620" width="35" height="10" as="geometry"/>
                </mxCell>
                <mxCell id="CipsPqIhGQeJuf70R6U5-20" value="" style="rounded=1;whiteSpace=wrap;html=1;rotation=90;" parent="1" vertex="1">
                    <mxGeometry x="1252.5" y="584" width="35" height="10" as="geometry"/>
                </mxCell>
                <mxCell id="CipsPqIhGQeJuf70R6U5-21" value="" style="endArrow=classic;html=1;rounded=0;entryX=0;entryY=0.25;entryDx=0;entryDy=0;exitX=1;exitY=1;exitDx=0;exitDy=0;dashed=1;" parent="1" source="CipsPqIhGQeJuf70R6U5-20" target="CipsPqIhGQeJuf70R6U5-18" edge="1">
                    <mxGeometry width="50" height="50" relative="1" as="geometry">
                        <mxPoint x="1280" y="630" as="sourcePoint"/>
                        <mxPoint x="1330" y="580" as="targetPoint"/>
                    </mxGeometry>
                </mxCell>
                <mxCell id="CipsPqIhGQeJuf70R6U5-22" value="" style="endArrow=classic;html=1;rounded=0;exitX=1;exitY=0;exitDx=0;exitDy=0;" parent="1" source="CipsPqIhGQeJuf70R6U5-18" edge="1">
                    <mxGeometry width="50" height="50" relative="1" as="geometry">
                        <mxPoint x="1200" y="620" as="sourcePoint"/>
                        <mxPoint x="1470" y="640" as="targetPoint"/>
                    </mxGeometry>
                </mxCell>
                <mxCell id="CipsPqIhGQeJuf70R6U5-25" value="" style="endArrow=none;dashed=1;html=1;dashPattern=1 3;strokeWidth=2;rounded=0;exitX=0.5;exitY=1;exitDx=0;exitDy=0;entryX=0;entryY=0.5;entryDx=0;entryDy=0;" parent="1" source="5qGD1oRil_xxfWdZ3Xh3-5" target="CipsPqIhGQeJuf70R6U5-24" edge="1">
                    <mxGeometry width="50" height="50" relative="1" as="geometry">
                        <mxPoint x="1480" y="180" as="sourcePoint"/>
                        <mxPoint x="1480" y="1010" as="targetPoint"/>
                    </mxGeometry>
                </mxCell>
                <mxCell id="CipsPqIhGQeJuf70R6U5-24" value="" style="rounded=1;whiteSpace=wrap;html=1;rotation=90;" parent="1" vertex="1">
                    <mxGeometry x="1452.5" y="662.5" width="55" height="10" as="geometry"/>
                </mxCell>
                <mxCell id="CipsPqIhGQeJuf70R6U5-27" value="" style="endArrow=none;dashed=1;html=1;dashPattern=1 3;strokeWidth=2;rounded=0;exitX=1;exitY=0.5;exitDx=0;exitDy=0;entryX=0;entryY=0.5;entryDx=0;entryDy=0;" parent="1" source="CipsPqIhGQeJuf70R6U5-18" target="CipsPqIhGQeJuf70R6U5-26" edge="1">
                    <mxGeometry width="50" height="50" relative="1" as="geometry">
                        <mxPoint x="1070" y="643" as="sourcePoint"/>
                        <mxPoint x="1070" y="1010" as="targetPoint"/>
                    </mxGeometry>
                </mxCell>
                <mxCell id="CipsPqIhGQeJuf70R6U5-26" value="" style="rounded=1;whiteSpace=wrap;html=1;rotation=90;" parent="1" vertex="1">
                    <mxGeometry x="1046.25" y="713.75" width="47.5" height="10" as="geometry"/>
                </mxCell>
                <mxCell id="CipsPqIhGQeJuf70R6U5-28" value="" style="endArrow=classic;html=1;rounded=0;entryX=0;entryY=0;entryDx=0;entryDy=0;exitX=1;exitY=1;exitDx=0;exitDy=0;dashed=1;" parent="1" source="CipsPqIhGQeJuf70R6U5-24" target="CipsPqIhGQeJuf70R6U5-26" edge="1">
                    <mxGeometry width="50" height="50" relative="1" as="geometry">
                        <mxPoint x="1210" y="700" as="sourcePoint"/>
                        <mxPoint x="1260" y="650" as="targetPoint"/>
                    </mxGeometry>
                </mxCell>
                <mxCell id="CipsPqIhGQeJuf70R6U5-30" value="&lt;font style=&quot;font-size: 10px;&quot;&gt;Renderizar Error&lt;/font&gt;" style="text;html=1;align=center;verticalAlign=middle;resizable=0;points=[];autosize=1;strokeColor=none;fillColor=none;rotation=-90;" parent="1" vertex="1">
                    <mxGeometry x="410" y="358" width="100" height="30" as="geometry"/>
                </mxCell>
                <mxCell id="CipsPqIhGQeJuf70R6U5-31" value="" style="rounded=1;whiteSpace=wrap;html=1;rotation=-90;" parent="1" vertex="1">
                    <mxGeometry x="671.96" y="761.96" width="56.07" height="10" as="geometry"/>
                </mxCell>
                <mxCell id="CipsPqIhGQeJuf70R6U5-32" value="" style="endArrow=none;dashed=1;html=1;dashPattern=1 3;strokeWidth=2;rounded=0;exitX=0;exitY=0.5;exitDx=0;exitDy=0;entryX=1;entryY=0.5;entryDx=0;entryDy=0;" parent="1" source="CipsPqIhGQeJuf70R6U5-7" target="CipsPqIhGQeJuf70R6U5-31" edge="1">
                    <mxGeometry width="50" height="50" relative="1" as="geometry">
                        <mxPoint x="700" y="537" as="sourcePoint"/>
                        <mxPoint x="700" y="1010" as="targetPoint"/>
                    </mxGeometry>
                </mxCell>
                <mxCell id="CipsPqIhGQeJuf70R6U5-33" value="" style="endArrow=classic;html=1;rounded=0;exitX=1;exitY=1;exitDx=0;exitDy=0;entryX=1;entryY=1;entryDx=0;entryDy=0;dashed=1;" parent="1" source="CipsPqIhGQeJuf70R6U5-26" target="CipsPqIhGQeJuf70R6U5-31" edge="1">
                    <mxGeometry width="50" height="50" relative="1" as="geometry">
                        <mxPoint x="1070" y="740" as="sourcePoint"/>
                        <mxPoint x="710" y="740" as="targetPoint"/>
                    </mxGeometry>
                </mxCell>
                <mxCell id="CipsPqIhGQeJuf70R6U5-35" value="" style="endArrow=classic;html=1;rounded=0;entryX=1;entryY=0.75;entryDx=0;entryDy=0;exitX=0;exitY=0.25;exitDx=0;exitDy=0;dashed=1;" parent="1" source="CipsPqIhGQeJuf70R6U5-31" target="CipsPqIhGQeJuf70R6U5-10" edge="1">
                    <mxGeometry width="50" height="50" relative="1" as="geometry">
                        <mxPoint x="660" y="800" as="sourcePoint"/>
                        <mxPoint x="710" y="750" as="targetPoint"/>
                    </mxGeometry>
                </mxCell>
                <mxCell id="CipsPqIhGQeJuf70R6U5-36" value="200 OK" style="text;html=1;align=center;verticalAlign=middle;resizable=0;points=[];autosize=1;strokeColor=none;fillColor=none;" parent="1" vertex="1">
                    <mxGeometry x="530" y="768" width="60" height="30" as="geometry"/>
                </mxCell>
                <mxCell id="CipsPqIhGQeJuf70R6U5-39" value="" style="endArrow=none;dashed=1;html=1;dashPattern=1 3;strokeWidth=2;rounded=0;exitX=0;exitY=0.5;exitDx=0;exitDy=0;entryX=1;entryY=0.5;entryDx=0;entryDy=0;" parent="1" source="CipsPqIhGQeJuf70R6U5-18" target="CipsPqIhGQeJuf70R6U5-14" edge="1">
                    <mxGeometry width="50" height="50" relative="1" as="geometry">
                        <mxPoint x="1090" y="660" as="sourcePoint"/>
                        <mxPoint x="1140" y="610" as="targetPoint"/>
                    </mxGeometry>
                </mxCell>
                <mxCell id="CipsPqIhGQeJuf70R6U5-40" value="subprocess.exec mkdir" style="text;html=1;align=center;verticalAlign=middle;resizable=0;points=[];autosize=1;strokeColor=none;fillColor=none;" parent="1" vertex="1">
                    <mxGeometry x="1270" y="610" width="150" height="30" as="geometry"/>
                </mxCell>
                <mxCell id="CipsPqIhGQeJuf70R6U5-41" value="Folder.insert()" style="text;html=1;align=center;verticalAlign=middle;resizable=0;points=[];autosize=1;strokeColor=none;fillColor=none;" parent="1" vertex="1">
                    <mxGeometry x="1110" y="537.5" width="100" height="30" as="geometry"/>
                </mxCell>
                <mxCell id="CipsPqIhGQeJuf70R6U5-42" value="200 OK" style="text;html=1;align=center;verticalAlign=middle;resizable=0;points=[];autosize=1;strokeColor=none;fillColor=none;" parent="1" vertex="1">
                    <mxGeometry x="917.33" y="713.75" width="60" height="30" as="geometry"/>
                </mxCell>
                <mxCell id="Yf5GDBuyIGuxIvm1wJj_-1" value="&lt;font style=&quot;font-size: 25px;&quot;&gt;Crear una cuenta&lt;/font&gt;" style="text;html=1;align=center;verticalAlign=middle;whiteSpace=wrap;rounded=0;" parent="1" vertex="1">
                    <mxGeometry x="710" y="50" width="240" height="30" as="geometry"/>
                </mxCell>
                <mxCell id="Yf5GDBuyIGuxIvm1wJj_-2" value="Miembro/usuario" style="rounded=1;whiteSpace=wrap;html=1;" parent="1" vertex="1">
                    <mxGeometry x="480" y="1250" width="120" height="60" as="geometry"/>
                </mxCell>
                <mxCell id="Yf5GDBuyIGuxIvm1wJj_-3" value="Interfaz/Frontend" style="rounded=1;whiteSpace=wrap;html=1;" parent="1" vertex="1">
                    <mxGeometry x="680" y="1250" width="120" height="60" as="geometry"/>
                </mxCell>
                <mxCell id="Yf5GDBuyIGuxIvm1wJj_-4" value="API de Autenticación&amp;nbsp;&lt;br&gt;(Server Auth)" style="rounded=1;whiteSpace=wrap;html=1;" parent="1" vertex="1">
                    <mxGeometry x="890" y="1250" width="120" height="60" as="geometry"/>
                </mxCell>
                <mxCell id="Yf5GDBuyIGuxIvm1wJj_-7" value="MongoDB Auth" style="rounded=1;whiteSpace=wrap;html=1;" parent="1" vertex="1">
                    <mxGeometry x="1090" y="1250" width="120" height="60" as="geometry"/>
                </mxCell>
                <mxCell id="Yf5GDBuyIGuxIvm1wJj_-13" value="Miembro/usuario" style="rounded=1;whiteSpace=wrap;html=1;" parent="1" vertex="1">
                    <mxGeometry x="480" y="2090" width="120" height="60" as="geometry"/>
                </mxCell>
                <mxCell id="Yf5GDBuyIGuxIvm1wJj_-14" value="Interfaz/Frontend" style="rounded=1;whiteSpace=wrap;html=1;" parent="1" vertex="1">
                    <mxGeometry x="680.0000000000001" y="2090" width="120" height="60" as="geometry"/>
                </mxCell>
                <mxCell id="Yf5GDBuyIGuxIvm1wJj_-15" value="API de Autenticación&amp;nbsp;&lt;br&gt;(Server Auth)" style="rounded=1;whiteSpace=wrap;html=1;" parent="1" vertex="1">
                    <mxGeometry x="890" y="2090" width="120" height="60" as="geometry"/>
                </mxCell>
                <mxCell id="Yf5GDBuyIGuxIvm1wJj_-18" value="MongoDB Auth" style="rounded=1;whiteSpace=wrap;html=1;" parent="1" vertex="1">
                    <mxGeometry x="1089.9999999999998" y="2090" width="120" height="60" as="geometry"/>
                </mxCell>
                <mxCell id="Yf5GDBuyIGuxIvm1wJj_-21" value="" style="endArrow=none;dashed=1;html=1;rounded=0;entryX=0.5;entryY=1;entryDx=0;entryDy=0;exitX=0;exitY=0.5;exitDx=0;exitDy=0;" parent="1" source="Yf5GDBuyIGuxIvm1wJj_-25" target="Yf5GDBuyIGuxIvm1wJj_-2" edge="1">
                    <mxGeometry width="50" height="50" relative="1" as="geometry">
                        <mxPoint x="785.08" y="1640" as="sourcePoint"/>
                        <mxPoint x="835.08" y="1590" as="targetPoint"/>
                    </mxGeometry>
                </mxCell>
                <mxCell id="Yf5GDBuyIGuxIvm1wJj_-22" value="" style="endArrow=none;dashed=1;html=1;rounded=0;entryX=0.5;entryY=1;entryDx=0;entryDy=0;exitX=1;exitY=0.5;exitDx=0;exitDy=0;" parent="1" edge="1">
                    <mxGeometry width="50" height="50" relative="1" as="geometry">
                        <mxPoint x="740" y="1407.5" as="sourcePoint"/>
                        <mxPoint x="740" y="1310" as="targetPoint"/>
                    </mxGeometry>
                </mxCell>
                <mxCell id="Yf5GDBuyIGuxIvm1wJj_-23" value="" style="endArrow=none;dashed=1;html=1;rounded=0;entryX=0.5;entryY=1;entryDx=0;entryDy=0;exitX=0;exitY=0.5;exitDx=0;exitDy=0;" parent="1" source="Yf5GDBuyIGuxIvm1wJj_-35" target="Yf5GDBuyIGuxIvm1wJj_-4" edge="1">
                    <mxGeometry width="50" height="50" relative="1" as="geometry">
                        <mxPoint x="785.08" y="1610" as="sourcePoint"/>
                        <mxPoint x="835.08" y="1560" as="targetPoint"/>
                    </mxGeometry>
                </mxCell>
                <mxCell id="Yf5GDBuyIGuxIvm1wJj_-24" value="" style="endArrow=none;dashed=1;html=1;rounded=0;entryX=0.5;entryY=1;entryDx=0;entryDy=0;exitX=0;exitY=0.5;exitDx=0;exitDy=0;" parent="1" source="Yf5GDBuyIGuxIvm1wJj_-43" target="Yf5GDBuyIGuxIvm1wJj_-7" edge="1">
                    <mxGeometry width="50" height="50" relative="1" as="geometry">
                        <mxPoint x="1035.08" y="1570" as="sourcePoint"/>
                        <mxPoint x="1085.08" y="1520" as="targetPoint"/>
                    </mxGeometry>
                </mxCell>
                <mxCell id="Yf5GDBuyIGuxIvm1wJj_-26" value="" style="endArrow=none;dashed=1;html=1;rounded=0;entryX=1;entryY=0.5;entryDx=0;entryDy=0;exitX=0.5;exitY=0;exitDx=0;exitDy=0;" parent="1" source="Yf5GDBuyIGuxIvm1wJj_-13" target="Yf5GDBuyIGuxIvm1wJj_-25" edge="1">
                    <mxGeometry width="50" height="50" relative="1" as="geometry">
                        <mxPoint x="542" y="1880" as="sourcePoint"/>
                        <mxPoint x="540" y="1310" as="targetPoint"/>
                    </mxGeometry>
                </mxCell>
                <mxCell id="Yf5GDBuyIGuxIvm1wJj_-25" value="" style="rounded=1;whiteSpace=wrap;html=1;rotation=90;" parent="1" vertex="1">
                    <mxGeometry x="508.80000000000007" y="1370" width="62.41" height="10" as="geometry"/>
                </mxCell>
                <mxCell id="Yf5GDBuyIGuxIvm1wJj_-28" value="" style="endArrow=none;dashed=1;html=1;rounded=0;entryX=0;entryY=0.5;entryDx=0;entryDy=0;exitX=0;exitY=0.5;exitDx=0;exitDy=0;" parent="1" source="Yf5GDBuyIGuxIvm1wJj_-66" target="Yf5GDBuyIGuxIvm1wJj_-27" edge="1">
                    <mxGeometry width="50" height="50" relative="1" as="geometry">
                        <mxPoint x="742" y="1880" as="sourcePoint"/>
                        <mxPoint x="740" y="1310" as="targetPoint"/>
                    </mxGeometry>
                </mxCell>
                <mxCell id="Yf5GDBuyIGuxIvm1wJj_-27" value="" style="rounded=1;whiteSpace=wrap;html=1;rotation=-90;" parent="1" vertex="1">
                    <mxGeometry x="715.63" y="1426.88" width="48.75" height="10" as="geometry"/>
                </mxCell>
                <mxCell id="Yf5GDBuyIGuxIvm1wJj_-29" value="" style="endArrow=classic;html=1;rounded=0;exitX=1;exitY=0;exitDx=0;exitDy=0;entryX=1;entryY=0;entryDx=0;entryDy=0;" parent="1" source="Yf5GDBuyIGuxIvm1wJj_-25" target="Yf5GDBuyIGuxIvm1wJj_-27" edge="1">
                    <mxGeometry width="50" height="50" relative="1" as="geometry">
                        <mxPoint x="680" y="1470" as="sourcePoint"/>
                        <mxPoint x="730" y="1420" as="targetPoint"/>
                    </mxGeometry>
                </mxCell>
                <mxCell id="Yf5GDBuyIGuxIvm1wJj_-30" value="&lt;b&gt;&lt;i&gt;&lt;u&gt;Flujo Alternativo&lt;/u&gt;&lt;/i&gt;&lt;/b&gt;" style="shape=umlFrame;whiteSpace=wrap;html=1;pointerEvents=0;recursiveResize=0;container=1;collapsible=0;width=170;" parent="1" vertex="1">
                    <mxGeometry x="680" y="1530" width="360" height="530" as="geometry"/>
                </mxCell>
                <mxCell id="Yf5GDBuyIGuxIvm1wJj_-31" value="Si existe el usuario" style="text;html=1;" parent="Yf5GDBuyIGuxIvm1wJj_-30" vertex="1">
                    <mxGeometry width="100" height="20" relative="1" as="geometry">
                        <mxPoint x="20" y="40" as="offset"/>
                    </mxGeometry>
                </mxCell>
                <mxCell id="Yf5GDBuyIGuxIvm1wJj_-32" value="" style="line;strokeWidth=1;dashed=1;labelPosition=center;verticalLabelPosition=bottom;align=left;verticalAlign=top;spacingLeft=20;spacingTop=15;html=1;whiteSpace=wrap;" parent="Yf5GDBuyIGuxIvm1wJj_-30" vertex="1">
                    <mxGeometry y="262.5" width="360" height="265" as="geometry"/>
                </mxCell>
                <mxCell id="Yf5GDBuyIGuxIvm1wJj_-49" value="" style="rounded=1;whiteSpace=wrap;html=1;rotation=90;" parent="Yf5GDBuyIGuxIvm1wJj_-30" vertex="1">
                    <mxGeometry x="246.25" y="93.75" width="47.5" height="10" as="geometry"/>
                </mxCell>
                <mxCell id="Yf5GDBuyIGuxIvm1wJj_-51" value="usuario" style="text;html=1;align=center;verticalAlign=middle;whiteSpace=wrap;rounded=0;" parent="Yf5GDBuyIGuxIvm1wJj_-30" vertex="1">
                    <mxGeometry x="310" y="60" width="43.75" height="10" as="geometry"/>
                </mxCell>
                <mxCell id="Yf5GDBuyIGuxIvm1wJj_-55" value="&lt;b&gt;&lt;i&gt;&lt;u&gt;Flujo alternativo&lt;/u&gt;&lt;/i&gt;&lt;/b&gt;" style="shape=umlFrame;whiteSpace=wrap;html=1;pointerEvents=0;recursiveResize=0;container=1;collapsible=0;width=170;" parent="Yf5GDBuyIGuxIvm1wJj_-30" vertex="1">
                    <mxGeometry y="140" width="360" height="250" as="geometry"/>
                </mxCell>
                <mxCell id="Yf5GDBuyIGuxIvm1wJj_-57" value="" style="line;strokeWidth=1;dashed=1;labelPosition=center;verticalLabelPosition=bottom;align=left;verticalAlign=top;spacingLeft=20;spacingTop=15;html=1;whiteSpace=wrap;" parent="Yf5GDBuyIGuxIvm1wJj_-55" vertex="1">
                    <mxGeometry y="160" width="360" height="10" as="geometry"/>
                </mxCell>
                <mxCell id="Yf5GDBuyIGuxIvm1wJj_-58" value="&lt;font style=&quot;font-size: 9px;&quot;&gt;Si contraseña coincide&lt;/font&gt;" style="text;html=1;align=center;verticalAlign=middle;whiteSpace=wrap;rounded=0;" parent="Yf5GDBuyIGuxIvm1wJj_-55" vertex="1">
                    <mxGeometry x="2.330000000000041" y="30" width="110" height="30" as="geometry"/>
                </mxCell>
                <mxCell id="Yf5GDBuyIGuxIvm1wJj_-61" value="" style="rounded=1;whiteSpace=wrap;html=1;rotation=90;" parent="Yf5GDBuyIGuxIvm1wJj_-55" vertex="1">
                    <mxGeometry x="255.64" y="190" width="28.75" height="10" as="geometry"/>
                </mxCell>
                <mxCell id="Yf5GDBuyIGuxIvm1wJj_-63" value="&lt;font style=&quot;font-size: 9px;&quot;&gt;Si no&lt;/font&gt;" style="text;html=1;align=center;verticalAlign=middle;whiteSpace=wrap;rounded=0;" parent="Yf5GDBuyIGuxIvm1wJj_-55" vertex="1">
                    <mxGeometry x="13.58" y="180" width="27.67" height="10" as="geometry"/>
                </mxCell>
                <mxCell id="E-fx8m8RZ-D9GF5w707M-10" value="&lt;font style=&quot;font-size: 10px;&quot;&gt;400 bad request, Error de contraseña invalida&lt;/font&gt;" style="text;html=1;align=center;verticalAlign=middle;whiteSpace=wrap;rounded=0;" parent="Yf5GDBuyIGuxIvm1wJj_-55" vertex="1">
                    <mxGeometry x="85.64" y="187.5" width="160" height="15" as="geometry"/>
                </mxCell>
                <mxCell id="E-fx8m8RZ-D9GF5w707M-11" value="&lt;font style=&quot;font-size: 11px;&quot;&gt;200 OK y retorno de JWT&lt;/font&gt;" style="text;html=1;align=center;verticalAlign=middle;whiteSpace=wrap;rounded=0;" parent="Yf5GDBuyIGuxIvm1wJj_-55" vertex="1">
                    <mxGeometry x="75.63999999999999" y="68" width="180" height="30" as="geometry"/>
                </mxCell>
                <mxCell id="E-fx8m8RZ-D9GF5w707M-14" value="&lt;font style=&quot;font-size: 10px;&quot;&gt;Render de Exito en login&lt;/font&gt;" style="text;html=1;align=center;verticalAlign=middle;whiteSpace=wrap;rounded=0;" parent="Yf5GDBuyIGuxIvm1wJj_-55" vertex="1">
                    <mxGeometry x="10" y="98" width="30" height="30" as="geometry"/>
                </mxCell>
                <mxCell id="E-fx8m8RZ-D9GF5w707M-16" value="&lt;font style=&quot;font-size: 10px;&quot;&gt;Render de error&lt;/font&gt;" style="text;html=1;align=center;verticalAlign=middle;whiteSpace=wrap;rounded=0;" parent="Yf5GDBuyIGuxIvm1wJj_-55" vertex="1">
                    <mxGeometry x="13.58" y="210" width="30" height="30" as="geometry"/>
                </mxCell>
                <mxCell id="E-fx8m8RZ-D9GF5w707M-8" value="Si no existe" style="text;html=1;align=center;verticalAlign=middle;whiteSpace=wrap;rounded=0;" parent="Yf5GDBuyIGuxIvm1wJj_-30" vertex="1">
                    <mxGeometry x="70" y="400" width="100" height="30" as="geometry"/>
                </mxCell>
                <mxCell id="E-fx8m8RZ-D9GF5w707M-12" value="&lt;font style=&quot;font-size: 9px;&quot;&gt;400 Bad Request, error de contraseña no registrada&lt;/font&gt;" style="text;html=1;align=center;verticalAlign=middle;whiteSpace=wrap;rounded=0;" parent="Yf5GDBuyIGuxIvm1wJj_-30" vertex="1">
                    <mxGeometry x="100" y="442.5" width="130" height="30" as="geometry"/>
                </mxCell>
                <mxCell id="E-fx8m8RZ-D9GF5w707M-17" value="&lt;font style=&quot;font-size: 10px;&quot;&gt;Render de error&lt;/font&gt;" style="text;html=1;align=center;verticalAlign=middle;whiteSpace=wrap;rounded=0;" parent="Yf5GDBuyIGuxIvm1wJj_-30" vertex="1">
                    <mxGeometry x="20" y="482.5" width="30" height="30" as="geometry"/>
                </mxCell>
                <mxCell id="Yf5GDBuyIGuxIvm1wJj_-64" value="" style="rounded=1;whiteSpace=wrap;html=1;rotation=90;" parent="Yf5GDBuyIGuxIvm1wJj_-30" vertex="1">
                    <mxGeometry x="237.5" y="440" width="65" height="10" as="geometry"/>
                </mxCell>
                <mxCell id="Yf5GDBuyIGuxIvm1wJj_-62" value="" style="endArrow=none;dashed=1;html=1;rounded=0;entryX=1;entryY=0.5;entryDx=0;entryDy=0;exitX=0;exitY=0.5;exitDx=0;exitDy=0;" parent="Yf5GDBuyIGuxIvm1wJj_-30" source="Yf5GDBuyIGuxIvm1wJj_-64" target="Yf5GDBuyIGuxIvm1wJj_-61" edge="1">
                    <mxGeometry width="50" height="50" relative="1" as="geometry">
                        <mxPoint x="270" y="960" as="sourcePoint"/>
                        <mxPoint x="270" y="238" as="targetPoint"/>
                    </mxGeometry>
                </mxCell>
                <mxCell id="E-fx8m8RZ-D9GF5w707M-5" value="" style="rounded=1;whiteSpace=wrap;html=1;rotation=90;" parent="Yf5GDBuyIGuxIvm1wJj_-30" vertex="1">
                    <mxGeometry x="41.889999999999986" y="492.5" width="36.24" height="10" as="geometry"/>
                </mxCell>
                <mxCell id="E-fx8m8RZ-D9GF5w707M-7" value="" style="endArrow=classic;html=1;rounded=0;entryX=0;entryY=0;entryDx=0;entryDy=0;exitX=1;exitY=1;exitDx=0;exitDy=0;" parent="Yf5GDBuyIGuxIvm1wJj_-30" source="Yf5GDBuyIGuxIvm1wJj_-64" target="E-fx8m8RZ-D9GF5w707M-5" edge="1">
                    <mxGeometry width="50" height="50" relative="1" as="geometry">
                        <mxPoint x="100" y="502.5" as="sourcePoint"/>
                        <mxPoint x="150" y="452.5" as="targetPoint"/>
                    </mxGeometry>
                </mxCell>
                <mxCell id="Yf5GDBuyIGuxIvm1wJj_-34" value="Llena un formulario" style="text;html=1;align=center;verticalAlign=middle;resizable=0;points=[];autosize=1;strokeColor=none;fillColor=none;" parent="1" vertex="1">
                    <mxGeometry x="571.21" y="1370" width="130" height="30" as="geometry"/>
                </mxCell>
                <mxCell id="Yf5GDBuyIGuxIvm1wJj_-36" value="" style="endArrow=none;dashed=1;html=1;rounded=0;entryX=1;entryY=0.5;entryDx=0;entryDy=0;exitX=0;exitY=0.5;exitDx=0;exitDy=0;" parent="1" source="Yf5GDBuyIGuxIvm1wJj_-49" target="Yf5GDBuyIGuxIvm1wJj_-35" edge="1">
                    <mxGeometry width="50" height="50" relative="1" as="geometry">
                        <mxPoint x="950" y="2080" as="sourcePoint"/>
                        <mxPoint x="950" y="1310" as="targetPoint"/>
                    </mxGeometry>
                </mxCell>
                <mxCell id="Yf5GDBuyIGuxIvm1wJj_-35" value="" style="rounded=1;whiteSpace=wrap;html=1;rotation=90;" parent="1" vertex="1">
                    <mxGeometry x="927.5" y="1472.5" width="45" height="10" as="geometry"/>
                </mxCell>
                <mxCell id="Yf5GDBuyIGuxIvm1wJj_-37" value="" style="endArrow=classic;html=1;rounded=0;exitX=0;exitY=1;exitDx=0;exitDy=0;entryX=0;entryY=1;entryDx=0;entryDy=0;" parent="1" source="Yf5GDBuyIGuxIvm1wJj_-27" target="Yf5GDBuyIGuxIvm1wJj_-35" edge="1">
                    <mxGeometry width="50" height="50" relative="1" as="geometry">
                        <mxPoint x="830" y="1480" as="sourcePoint"/>
                        <mxPoint x="880" y="1430" as="targetPoint"/>
                    </mxGeometry>
                </mxCell>
                <mxCell id="Yf5GDBuyIGuxIvm1wJj_-38" value="POST /login&amp;nbsp;" style="text;html=1;align=center;verticalAlign=middle;whiteSpace=wrap;rounded=0;" parent="1" vertex="1">
                    <mxGeometry x="770" y="1416.88" width="140" height="30" as="geometry"/>
                </mxCell>
                <mxCell id="Yf5GDBuyIGuxIvm1wJj_-39" value="" style="shape=note2;boundedLbl=1;whiteSpace=wrap;html=1;size=25;verticalAlign=top;align=center;" parent="1" vertex="1">
                    <mxGeometry x="780" y="1343.75" width="130" height="62.5" as="geometry"/>
                </mxCell>
                <mxCell id="Yf5GDBuyIGuxIvm1wJj_-40" value="&lt;font style=&quot;font-size: 9px;&quot;&gt;Se envía un JSON con fetch en POST al servidor de autenticación&lt;/font&gt;" style="text;html=1;align=center;verticalAlign=middle;whiteSpace=wrap;rounded=0;" parent="1" vertex="1">
                    <mxGeometry x="790.71" y="1360" width="90" height="30" as="geometry"/>
                </mxCell>
                <mxCell id="Yf5GDBuyIGuxIvm1wJj_-44" value="" style="endArrow=classic;html=1;rounded=0;exitX=1;exitY=0;exitDx=0;exitDy=0;entryX=0;entryY=1;entryDx=0;entryDy=0;" parent="1" source="Yf5GDBuyIGuxIvm1wJj_-35" target="Yf5GDBuyIGuxIvm1wJj_-43" edge="1">
                    <mxGeometry width="50" height="50" relative="1" as="geometry">
                        <mxPoint x="1000" y="1520" as="sourcePoint"/>
                        <mxPoint x="1050" y="1470" as="targetPoint"/>
                    </mxGeometry>
                </mxCell>
                <mxCell id="Yf5GDBuyIGuxIvm1wJj_-45" value="" style="endArrow=none;dashed=1;html=1;rounded=0;entryX=1;entryY=0.5;entryDx=0;entryDy=0;exitX=0.5;exitY=0;exitDx=0;exitDy=0;" parent="1" source="Yf5GDBuyIGuxIvm1wJj_-18" target="Yf5GDBuyIGuxIvm1wJj_-43" edge="1">
                    <mxGeometry width="50" height="50" relative="1" as="geometry">
                        <mxPoint x="1150" y="2080" as="sourcePoint"/>
                        <mxPoint x="1150" y="1310" as="targetPoint"/>
                    </mxGeometry>
                </mxCell>
                <mxCell id="Yf5GDBuyIGuxIvm1wJj_-43" value="" style="rounded=1;whiteSpace=wrap;html=1;rotation=90;" parent="1" vertex="1">
                    <mxGeometry x="1098.29" y="1546.72" width="103.43" height="10" as="geometry"/>
                </mxCell>
                <mxCell id="Yf5GDBuyIGuxIvm1wJj_-46" value="Se consulta el usuario por email" style="text;html=1;align=center;verticalAlign=middle;whiteSpace=wrap;rounded=0;" parent="1" vertex="1">
                    <mxGeometry x="977.5" y="1462.5" width="147.5" height="30" as="geometry"/>
                </mxCell>
                <mxCell id="Yf5GDBuyIGuxIvm1wJj_-48" value="" style="endArrow=classic;html=1;rounded=0;exitX=1;exitY=1;exitDx=0;exitDy=0;entryX=0;entryY=0;entryDx=0;entryDy=0;" parent="1" source="Yf5GDBuyIGuxIvm1wJj_-43" target="Yf5GDBuyIGuxIvm1wJj_-49" edge="1">
                    <mxGeometry width="50" height="50" relative="1" as="geometry">
                        <mxPoint x="930" y="1630" as="sourcePoint"/>
                        <mxPoint x="1060" y="1614" as="targetPoint"/>
                    </mxGeometry>
                </mxCell>
                <mxCell id="Yf5GDBuyIGuxIvm1wJj_-50" value="" style="endArrow=none;dashed=1;html=1;rounded=0;entryX=1;entryY=0.5;entryDx=0;entryDy=0;exitX=0;exitY=0.5;exitDx=0;exitDy=0;" parent="1" source="Yf5GDBuyIGuxIvm1wJj_-59" target="Yf5GDBuyIGuxIvm1wJj_-49" edge="1">
                    <mxGeometry width="50" height="50" relative="1" as="geometry">
                        <mxPoint x="950" y="2080" as="sourcePoint"/>
                        <mxPoint x="950" y="1500" as="targetPoint"/>
                    </mxGeometry>
                </mxCell>
                <mxCell id="Yf5GDBuyIGuxIvm1wJj_-60" value="" style="endArrow=none;dashed=1;html=1;rounded=0;entryX=1;entryY=0.5;entryDx=0;entryDy=0;exitX=0;exitY=0.5;exitDx=0;exitDy=0;" parent="1" source="Yf5GDBuyIGuxIvm1wJj_-61" target="Yf5GDBuyIGuxIvm1wJj_-59" edge="1">
                    <mxGeometry width="50" height="50" relative="1" as="geometry">
                        <mxPoint x="950" y="2490" as="sourcePoint"/>
                        <mxPoint x="950" y="1653" as="targetPoint"/>
                    </mxGeometry>
                </mxCell>
                <mxCell id="Yf5GDBuyIGuxIvm1wJj_-59" value="" style="rounded=1;whiteSpace=wrap;html=1;rotation=90;" parent="1" vertex="1">
                    <mxGeometry x="931.42" y="1743.83" width="37.18" height="10" as="geometry"/>
                </mxCell>
                <mxCell id="Yf5GDBuyIGuxIvm1wJj_-65" value="" style="endArrow=none;dashed=1;html=1;rounded=0;entryX=1;entryY=0.5;entryDx=0;entryDy=0;exitX=0.5;exitY=0;exitDx=0;exitDy=0;" parent="1" source="Yf5GDBuyIGuxIvm1wJj_-15" target="Yf5GDBuyIGuxIvm1wJj_-64" edge="1">
                    <mxGeometry width="50" height="50" relative="1" as="geometry">
                        <mxPoint x="950" y="2490" as="sourcePoint"/>
                        <mxPoint x="950" y="1884" as="targetPoint"/>
                    </mxGeometry>
                </mxCell>
                <mxCell id="Yf5GDBuyIGuxIvm1wJj_-67" value="" style="endArrow=none;dashed=1;html=1;rounded=0;entryX=0;entryY=0.5;entryDx=0;entryDy=0;exitX=0;exitY=0.5;exitDx=0;exitDy=0;" parent="1" source="E-fx8m8RZ-D9GF5w707M-2" target="Yf5GDBuyIGuxIvm1wJj_-66" edge="1">
                    <mxGeometry width="50" height="50" relative="1" as="geometry">
                        <mxPoint x="740" y="2490" as="sourcePoint"/>
                        <mxPoint x="740" y="1456" as="targetPoint"/>
                    </mxGeometry>
                </mxCell>
                <mxCell id="Yf5GDBuyIGuxIvm1wJj_-66" value="" style="rounded=1;whiteSpace=wrap;html=1;rotation=90;" parent="1" vertex="1">
                    <mxGeometry x="724.3000000000001" y="1780" width="31.4" height="10" as="geometry"/>
                </mxCell>
                <mxCell id="E-fx8m8RZ-D9GF5w707M-1" value="" style="endArrow=classic;html=1;rounded=0;entryX=0;entryY=0;entryDx=0;entryDy=0;exitX=1;exitY=1;exitDx=0;exitDy=0;" parent="1" source="Yf5GDBuyIGuxIvm1wJj_-59" target="Yf5GDBuyIGuxIvm1wJj_-66" edge="1">
                    <mxGeometry width="50" height="50" relative="1" as="geometry">
                        <mxPoint x="840" y="1740" as="sourcePoint"/>
                        <mxPoint x="890" y="1690" as="targetPoint"/>
                    </mxGeometry>
                </mxCell>
                <mxCell id="E-fx8m8RZ-D9GF5w707M-3" value="" style="endArrow=none;dashed=1;html=1;rounded=0;entryX=0;entryY=0.5;entryDx=0;entryDy=0;exitX=0;exitY=0.5;exitDx=0;exitDy=0;" parent="1" source="E-fx8m8RZ-D9GF5w707M-5" target="E-fx8m8RZ-D9GF5w707M-2" edge="1">
                    <mxGeometry width="50" height="50" relative="1" as="geometry">
                        <mxPoint x="740" y="2490" as="sourcePoint"/>
                        <mxPoint x="740" y="1769" as="targetPoint"/>
                    </mxGeometry>
                </mxCell>
                <mxCell id="E-fx8m8RZ-D9GF5w707M-2" value="" style="rounded=1;whiteSpace=wrap;html=1;rotation=90;" parent="1" vertex="1">
                    <mxGeometry x="724.3000000000001" y="1890" width="31.4" height="10" as="geometry"/>
                </mxCell>
                <mxCell id="E-fx8m8RZ-D9GF5w707M-4" value="" style="endArrow=classic;html=1;rounded=0;entryX=0;entryY=0.25;entryDx=0;entryDy=0;exitX=1;exitY=1;exitDx=0;exitDy=0;" parent="1" source="Yf5GDBuyIGuxIvm1wJj_-61" target="E-fx8m8RZ-D9GF5w707M-2" edge="1">
                    <mxGeometry width="50" height="50" relative="1" as="geometry">
                        <mxPoint x="840" y="1860" as="sourcePoint"/>
                        <mxPoint x="890" y="1810" as="targetPoint"/>
                    </mxGeometry>
                </mxCell>
                <mxCell id="E-fx8m8RZ-D9GF5w707M-6" value="" style="endArrow=none;dashed=1;html=1;rounded=0;exitX=0.5;exitY=0;exitDx=0;exitDy=0;entryX=1;entryY=0.5;entryDx=0;entryDy=0;" parent="1" source="Yf5GDBuyIGuxIvm1wJj_-14" target="E-fx8m8RZ-D9GF5w707M-5" edge="1">
                    <mxGeometry width="50" height="50" relative="1" as="geometry">
                        <mxPoint x="740" y="2490" as="sourcePoint"/>
                        <mxPoint x="740" y="2050" as="targetPoint"/>
                        <Array as="points"/>
                    </mxGeometry>
                </mxCell>
                <mxCell id="E-fx8m8RZ-D9GF5w707M-18" value="&lt;font style=&quot;font-size: 22px;&quot;&gt;Inicio de sesión&lt;/font&gt;" style="text;html=1;align=center;verticalAlign=middle;whiteSpace=wrap;rounded=0;" parent="1" vertex="1">
                    <mxGeometry x="730.7" y="1190" width="230" height="30" as="geometry"/>
                </mxCell>
                <mxCell id="E-fx8m8RZ-D9GF5w707M-80" value="&lt;span style=&quot;font-size: 22px;&quot;&gt;Reestablecimiento de cuenta&lt;/span&gt;" style="text;html=1;align=center;verticalAlign=middle;whiteSpace=wrap;rounded=0;" parent="1" vertex="1">
                    <mxGeometry x="715" y="2338" width="344.3" height="30" as="geometry"/>
                </mxCell>
                <mxCell id="E-fx8m8RZ-D9GF5w707M-81" value="Miembro/usuario" style="rounded=1;whiteSpace=wrap;html=1;" parent="1" vertex="1">
                    <mxGeometry x="505" y="2408" width="120" height="60" as="geometry"/>
                </mxCell>
                <mxCell id="E-fx8m8RZ-D9GF5w707M-82" value="Interfaz/Frontend" style="rounded=1;whiteSpace=wrap;html=1;" parent="1" vertex="1">
                    <mxGeometry x="705" y="2408" width="120" height="60" as="geometry"/>
                </mxCell>
                <mxCell id="E-fx8m8RZ-D9GF5w707M-83" value="API de Autenticación&amp;nbsp;&lt;br&gt;(Server Auth)" style="rounded=1;whiteSpace=wrap;html=1;" parent="1" vertex="1">
                    <mxGeometry x="915" y="2408" width="120" height="60" as="geometry"/>
                </mxCell>
                <mxCell id="E-fx8m8RZ-D9GF5w707M-84" value="MongoDB Auth" style="rounded=1;whiteSpace=wrap;html=1;" parent="1" vertex="1">
                    <mxGeometry x="1115" y="2408" width="120" height="60" as="geometry"/>
                </mxCell>
                <mxCell id="E-fx8m8RZ-D9GF5w707M-85" value="Miembro/usuario" style="rounded=1;whiteSpace=wrap;html=1;" parent="1" vertex="1">
                    <mxGeometry x="502.85" y="3570" width="120" height="60" as="geometry"/>
                </mxCell>
                <mxCell id="E-fx8m8RZ-D9GF5w707M-86" value="Interfaz/Frontend" style="rounded=1;whiteSpace=wrap;html=1;" parent="1" vertex="1">
                    <mxGeometry x="702.85" y="3570" width="120" height="60" as="geometry"/>
                </mxCell>
                <mxCell id="E-fx8m8RZ-D9GF5w707M-87" value="API de Autenticación&amp;nbsp;&lt;br&gt;(Server Auth)" style="rounded=1;whiteSpace=wrap;html=1;" parent="1" vertex="1">
                    <mxGeometry x="912.85" y="3570" width="120" height="60" as="geometry"/>
                </mxCell>
                <mxCell id="E-fx8m8RZ-D9GF5w707M-88" value="MongoDB Auth" style="rounded=1;whiteSpace=wrap;html=1;" parent="1" vertex="1">
                    <mxGeometry x="1112.85" y="3570" width="120" height="60" as="geometry"/>
                </mxCell>
                <mxCell id="E-fx8m8RZ-D9GF5w707M-89" value="" style="endArrow=none;dashed=1;html=1;rounded=0;entryX=0.5;entryY=1;entryDx=0;entryDy=0;exitX=0;exitY=0.5;exitDx=0;exitDy=0;" parent="1" source="E-fx8m8RZ-D9GF5w707M-93" target="E-fx8m8RZ-D9GF5w707M-81" edge="1">
                    <mxGeometry width="50" height="50" relative="1" as="geometry">
                        <mxPoint x="840" y="2680" as="sourcePoint"/>
                        <mxPoint x="890" y="2630" as="targetPoint"/>
                    </mxGeometry>
                </mxCell>
                <mxCell id="E-fx8m8RZ-D9GF5w707M-90" value="" style="endArrow=none;dashed=1;html=1;rounded=0;entryX=0.5;entryY=1;entryDx=0;entryDy=0;exitX=0;exitY=0.5;exitDx=0;exitDy=0;" parent="1" source="E-fx8m8RZ-D9GF5w707M-95" target="E-fx8m8RZ-D9GF5w707M-82" edge="1">
                    <mxGeometry width="50" height="50" relative="1" as="geometry">
                        <mxPoint x="840" y="2850" as="sourcePoint"/>
                        <mxPoint x="890" y="2800" as="targetPoint"/>
                    </mxGeometry>
                </mxCell>
                <mxCell id="E-fx8m8RZ-D9GF5w707M-91" value="" style="endArrow=none;dashed=1;html=1;rounded=0;entryX=0.5;entryY=1;entryDx=0;entryDy=0;exitX=0;exitY=0.5;exitDx=0;exitDy=0;" parent="1" source="E-fx8m8RZ-D9GF5w707M-107" target="E-fx8m8RZ-D9GF5w707M-83" edge="1">
                    <mxGeometry width="50" height="50" relative="1" as="geometry">
                        <mxPoint x="840" y="2850" as="sourcePoint"/>
                        <mxPoint x="890" y="2800" as="targetPoint"/>
                    </mxGeometry>
                </mxCell>
                <mxCell id="E-fx8m8RZ-D9GF5w707M-92" value="" style="endArrow=none;html=1;rounded=0;entryX=0.5;entryY=1;entryDx=0;entryDy=0;exitX=0;exitY=0.5;exitDx=0;exitDy=0;dashed=1;" parent="1" source="E-fx8m8RZ-D9GF5w707M-112" target="E-fx8m8RZ-D9GF5w707M-84" edge="1">
                    <mxGeometry width="50" height="50" relative="1" as="geometry">
                        <mxPoint x="840" y="2850" as="sourcePoint"/>
                        <mxPoint x="890" y="2800" as="targetPoint"/>
                    </mxGeometry>
                </mxCell>
                <mxCell id="E-fx8m8RZ-D9GF5w707M-94" value="" style="endArrow=none;dashed=1;html=1;rounded=0;entryX=1;entryY=0.5;entryDx=0;entryDy=0;exitX=0.065;exitY=0.496;exitDx=0;exitDy=0;exitPerimeter=0;" parent="1" source="E-fx8m8RZ-D9GF5w707M-97" target="E-fx8m8RZ-D9GF5w707M-93" edge="1">
                    <mxGeometry width="50" height="50" relative="1" as="geometry">
                        <mxPoint x="565" y="3160" as="sourcePoint"/>
                        <mxPoint x="565" y="2468" as="targetPoint"/>
                    </mxGeometry>
                </mxCell>
                <mxCell id="E-fx8m8RZ-D9GF5w707M-93" value="" style="rounded=1;whiteSpace=wrap;html=1;rotation=90;" parent="1" vertex="1">
                    <mxGeometry x="546.25" y="2500" width="37.5" height="10" as="geometry"/>
                </mxCell>
                <mxCell id="E-fx8m8RZ-D9GF5w707M-96" value="" style="endArrow=none;dashed=1;html=1;rounded=0;entryX=1;entryY=0.5;entryDx=0;entryDy=0;exitX=0;exitY=0.5;exitDx=0;exitDy=0;" parent="1" source="E-fx8m8RZ-D9GF5w707M-99" target="E-fx8m8RZ-D9GF5w707M-95" edge="1">
                    <mxGeometry width="50" height="50" relative="1" as="geometry">
                        <mxPoint x="765" y="3160" as="sourcePoint"/>
                        <mxPoint x="765" y="2468" as="targetPoint"/>
                    </mxGeometry>
                </mxCell>
                <mxCell id="E-fx8m8RZ-D9GF5w707M-95" value="" style="rounded=1;whiteSpace=wrap;html=1;rotation=90;" parent="1" vertex="1">
                    <mxGeometry x="744.06" y="2540" width="41.87" height="10" as="geometry"/>
                </mxCell>
                <mxCell id="E-fx8m8RZ-D9GF5w707M-98" value="" style="endArrow=none;dashed=1;html=1;rounded=0;entryX=1;entryY=0.5;entryDx=0;entryDy=0;exitX=0;exitY=0.5;exitDx=0;exitDy=0;" parent="1" source="E-fx8m8RZ-D9GF5w707M-140" target="E-fx8m8RZ-D9GF5w707M-97" edge="1">
                    <mxGeometry width="50" height="50" relative="1" as="geometry">
                        <mxPoint x="565" y="3160" as="sourcePoint"/>
                        <mxPoint x="565" y="2534" as="targetPoint"/>
                    </mxGeometry>
                </mxCell>
                <mxCell id="E-fx8m8RZ-D9GF5w707M-97" value="" style="rounded=1;whiteSpace=wrap;html=1;rotation=90;" parent="1" vertex="1">
                    <mxGeometry x="537.02" y="2587.04" width="55.94" height="10" as="geometry"/>
                </mxCell>
                <mxCell id="E-fx8m8RZ-D9GF5w707M-100" value="" style="endArrow=none;dashed=1;html=1;rounded=0;entryX=1;entryY=0.5;entryDx=0;entryDy=0;exitX=0;exitY=0.5;exitDx=0;exitDy=0;" parent="1" source="E-fx8m8RZ-D9GF5w707M-134" target="E-fx8m8RZ-D9GF5w707M-99" edge="1">
                    <mxGeometry width="50" height="50" relative="1" as="geometry">
                        <mxPoint x="765" y="3160" as="sourcePoint"/>
                        <mxPoint x="765" y="2584" as="targetPoint"/>
                    </mxGeometry>
                </mxCell>
                <mxCell id="E-fx8m8RZ-D9GF5w707M-99" value="" style="rounded=1;whiteSpace=wrap;html=1;rotation=90;" parent="1" vertex="1">
                    <mxGeometry x="749.06" y="2629.07" width="31.88" height="10" as="geometry"/>
                </mxCell>
                <mxCell id="E-fx8m8RZ-D9GF5w707M-101" value="" style="endArrow=classic;html=1;rounded=0;exitX=1;exitY=0;exitDx=0;exitDy=0;entryX=0;entryY=1;entryDx=0;entryDy=0;" parent="1" source="E-fx8m8RZ-D9GF5w707M-93" target="E-fx8m8RZ-D9GF5w707M-95" edge="1">
                    <mxGeometry width="50" height="50" relative="1" as="geometry">
                        <mxPoint x="720" y="2600" as="sourcePoint"/>
                        <mxPoint x="770" y="2550" as="targetPoint"/>
                    </mxGeometry>
                </mxCell>
                <mxCell id="E-fx8m8RZ-D9GF5w707M-102" value="" style="endArrow=classic;html=1;rounded=0;entryX=0;entryY=0.25;entryDx=0;entryDy=0;exitX=1;exitY=1;exitDx=0;exitDy=0;" parent="1" source="E-fx8m8RZ-D9GF5w707M-95" target="E-fx8m8RZ-D9GF5w707M-97" edge="1">
                    <mxGeometry width="50" height="50" relative="1" as="geometry">
                        <mxPoint x="720" y="2600" as="sourcePoint"/>
                        <mxPoint x="770" y="2550" as="targetPoint"/>
                    </mxGeometry>
                </mxCell>
                <mxCell id="E-fx8m8RZ-D9GF5w707M-103" value="click en restablecer contraseña" style="text;html=1;align=center;verticalAlign=middle;whiteSpace=wrap;rounded=0;" parent="1" vertex="1">
                    <mxGeometry x="571.21" y="2490" width="185" height="30" as="geometry"/>
                </mxCell>
                <mxCell id="E-fx8m8RZ-D9GF5w707M-104" value="Formulario que solicita el email" style="text;html=1;align=center;verticalAlign=middle;whiteSpace=wrap;rounded=0;" parent="1" vertex="1">
                    <mxGeometry x="583.12" y="2570" width="155" height="30" as="geometry"/>
                </mxCell>
                <mxCell id="E-fx8m8RZ-D9GF5w707M-105" value="" style="endArrow=classic;html=1;rounded=0;exitX=1;exitY=0.25;exitDx=0;exitDy=0;entryX=0;entryY=1;entryDx=0;entryDy=0;" parent="1" source="E-fx8m8RZ-D9GF5w707M-97" target="E-fx8m8RZ-D9GF5w707M-99" edge="1">
                    <mxGeometry width="50" height="50" relative="1" as="geometry">
                        <mxPoint x="720" y="2600" as="sourcePoint"/>
                        <mxPoint x="770" y="2550" as="targetPoint"/>
                    </mxGeometry>
                </mxCell>
                <mxCell id="E-fx8m8RZ-D9GF5w707M-106" value="Rellena el formulario" style="text;html=1;align=center;verticalAlign=middle;whiteSpace=wrap;rounded=0;" parent="1" vertex="1">
                    <mxGeometry x="600.63" y="2620" width="115" height="30" as="geometry"/>
                </mxCell>
                <mxCell id="E-fx8m8RZ-D9GF5w707M-108" value="" style="endArrow=none;dashed=1;html=1;rounded=0;entryX=1;entryY=0.5;entryDx=0;entryDy=0;exitX=0;exitY=0.5;exitDx=0;exitDy=0;" parent="1" source="E-fx8m8RZ-D9GF5w707M-116" target="E-fx8m8RZ-D9GF5w707M-107" edge="1">
                    <mxGeometry width="50" height="50" relative="1" as="geometry">
                        <mxPoint x="975" y="3160" as="sourcePoint"/>
                        <mxPoint x="975" y="2468" as="targetPoint"/>
                    </mxGeometry>
                </mxCell>
                <mxCell id="E-fx8m8RZ-D9GF5w707M-107" value="" style="rounded=1;whiteSpace=wrap;html=1;rotation=90;" parent="1" vertex="1">
                    <mxGeometry x="959.06" y="2660" width="31.88" height="10" as="geometry"/>
                </mxCell>
                <mxCell id="E-fx8m8RZ-D9GF5w707M-109" value="" style="endArrow=classic;html=1;rounded=0;exitX=1;exitY=0.25;exitDx=0;exitDy=0;entryX=0;entryY=1;entryDx=0;entryDy=0;" parent="1" source="E-fx8m8RZ-D9GF5w707M-99" target="E-fx8m8RZ-D9GF5w707M-107" edge="1">
                    <mxGeometry width="50" height="50" relative="1" as="geometry">
                        <mxPoint x="860" y="2640" as="sourcePoint"/>
                        <mxPoint x="910" y="2590" as="targetPoint"/>
                    </mxGeometry>
                </mxCell>
                <mxCell id="E-fx8m8RZ-D9GF5w707M-110" value="POST /request_reset_password" style="text;html=1;align=center;verticalAlign=middle;whiteSpace=wrap;rounded=0;" parent="1" vertex="1">
                    <mxGeometry x="840" y="2609.07" width="60" height="30" as="geometry"/>
                </mxCell>
                <mxCell id="E-fx8m8RZ-D9GF5w707M-111" value="" style="endArrow=classic;html=1;rounded=0;exitX=1;exitY=0;exitDx=0;exitDy=0;entryX=0;entryY=0.75;entryDx=0;entryDy=0;" parent="1" source="E-fx8m8RZ-D9GF5w707M-107" target="E-fx8m8RZ-D9GF5w707M-112" edge="1">
                    <mxGeometry width="50" height="50" relative="1" as="geometry">
                        <mxPoint x="910" y="2660" as="sourcePoint"/>
                        <mxPoint x="1140" y="2681" as="targetPoint"/>
                    </mxGeometry>
                </mxCell>
                <mxCell id="E-fx8m8RZ-D9GF5w707M-113" value="" style="endArrow=none;html=1;rounded=0;entryX=1;entryY=0.5;entryDx=0;entryDy=0;exitX=0;exitY=0.5;exitDx=0;exitDy=0;dashed=1;" parent="1" source="E-fx8m8RZ-D9GF5w707M-126" target="E-fx8m8RZ-D9GF5w707M-112" edge="1">
                    <mxGeometry width="50" height="50" relative="1" as="geometry">
                        <mxPoint x="1175" y="3160" as="sourcePoint"/>
                        <mxPoint x="1175" y="2468" as="targetPoint"/>
                    </mxGeometry>
                </mxCell>
                <mxCell id="E-fx8m8RZ-D9GF5w707M-112" value="" style="rounded=1;whiteSpace=wrap;html=1;rotation=90;" parent="1" vertex="1">
                    <mxGeometry x="1133.64" y="2715.43" width="82.73" height="10" as="geometry"/>
                </mxCell>
                <mxCell id="E-fx8m8RZ-D9GF5w707M-114" value="find users por email" style="text;html=1;align=center;verticalAlign=middle;whiteSpace=wrap;rounded=0;" parent="1" vertex="1">
                    <mxGeometry x="1020" y="2650" width="129" height="30" as="geometry"/>
                </mxCell>
                <mxCell id="E-fx8m8RZ-D9GF5w707M-117" value="" style="endArrow=classic;html=1;rounded=0;entryX=0;entryY=0;entryDx=0;entryDy=0;exitX=1;exitY=0.75;exitDx=0;exitDy=0;" parent="1" source="E-fx8m8RZ-D9GF5w707M-112" target="E-fx8m8RZ-D9GF5w707M-116" edge="1">
                    <mxGeometry width="50" height="50" relative="1" as="geometry">
                        <mxPoint x="910" y="2730" as="sourcePoint"/>
                        <mxPoint x="960" y="2680" as="targetPoint"/>
                    </mxGeometry>
                </mxCell>
                <mxCell id="E-fx8m8RZ-D9GF5w707M-118" value="obj usuario&lt;div&gt;&amp;nbsp;o none&lt;/div&gt;" style="text;html=1;align=center;verticalAlign=middle;whiteSpace=wrap;rounded=0;" parent="1" vertex="1">
                    <mxGeometry x="1110" y="2711.8" width="55" height="30" as="geometry"/>
                </mxCell>
                <mxCell id="E-fx8m8RZ-D9GF5w707M-119" value="Flujo alternativo" style="shape=umlFrame;whiteSpace=wrap;html=1;pointerEvents=0;recursiveResize=0;container=1;collapsible=0;width=170;" parent="1" vertex="1">
                    <mxGeometry x="728.03" y="2690" width="371.97" height="850" as="geometry"/>
                </mxCell>
                <mxCell id="E-fx8m8RZ-D9GF5w707M-120" value="si hay coincide usuario con email" style="text;html=1;" parent="E-fx8m8RZ-D9GF5w707M-119" vertex="1">
                    <mxGeometry width="100" height="20" relative="1" as="geometry">
                        <mxPoint x="20" y="40" as="offset"/>
                    </mxGeometry>
                </mxCell>
                <mxCell id="E-fx8m8RZ-D9GF5w707M-121" value="" style="line;strokeWidth=1;dashed=1;labelPosition=center;verticalLabelPosition=bottom;align=left;verticalAlign=top;spacingLeft=20;spacingTop=15;html=1;whiteSpace=wrap;" parent="E-fx8m8RZ-D9GF5w707M-119" vertex="1">
                    <mxGeometry y="630" width="370" height="84.53" as="geometry"/>
                </mxCell>
                <mxCell id="E-fx8m8RZ-D9GF5w707M-124" value="generar codigo con tiempo de expiración" style="text;html=1;align=center;verticalAlign=middle;whiteSpace=wrap;rounded=0;" parent="E-fx8m8RZ-D9GF5w707M-119" vertex="1">
                    <mxGeometry x="271.97" y="85.47" width="88.03" height="30" as="geometry"/>
                </mxCell>
                <mxCell id="E-fx8m8RZ-D9GF5w707M-128" value="guardar en BD" style="text;html=1;align=center;verticalAlign=middle;whiteSpace=wrap;rounded=0;" parent="E-fx8m8RZ-D9GF5w707M-119" vertex="1">
                    <mxGeometry x="310" y="135.47" width="100" height="30" as="geometry"/>
                </mxCell>
                <mxCell id="E-fx8m8RZ-D9GF5w707M-130" value="" style="rounded=1;whiteSpace=wrap;html=1;rotation=90;" parent="E-fx8m8RZ-D9GF5w707M-119" vertex="1">
                    <mxGeometry x="229.3900000000001" y="195.4699999999998" width="37.03" height="10" as="geometry"/>
                </mxCell>
                <mxCell id="E-fx8m8RZ-D9GF5w707M-137" value="JSON con codigo de verificación" style="text;html=1;align=center;verticalAlign=middle;whiteSpace=wrap;rounded=0;" parent="E-fx8m8RZ-D9GF5w707M-119" vertex="1">
                    <mxGeometry x="81.97000000000003" y="185.4699999999998" width="120" height="30" as="geometry"/>
                </mxCell>
                <mxCell id="E-fx8m8RZ-D9GF5w707M-139" value="renderiza codigo de verificación" style="text;html=1;align=center;verticalAlign=middle;whiteSpace=wrap;rounded=0;" parent="E-fx8m8RZ-D9GF5w707M-119" vertex="1">
                    <mxGeometry x="61.97000000000003" y="220" width="30" height="60" as="geometry"/>
                </mxCell>
                <mxCell id="E-fx8m8RZ-D9GF5w707M-144" value="" style="rounded=1;whiteSpace=wrap;html=1;rotation=90;" parent="E-fx8m8RZ-D9GF5w707M-119" vertex="1">
                    <mxGeometry x="15.220000000000036" y="340" width="43.51" height="10" as="geometry"/>
                </mxCell>
                <mxCell id="E-fx8m8RZ-D9GF5w707M-147" value="" style="endArrow=classic;html=1;rounded=0;exitX=0.25;exitY=0;exitDx=0;exitDy=0;entryX=0.75;entryY=0;entryDx=0;entryDy=0;edgeStyle=orthogonalEdgeStyle;curved=1;" parent="E-fx8m8RZ-D9GF5w707M-119" source="E-fx8m8RZ-D9GF5w707M-144" target="E-fx8m8RZ-D9GF5w707M-144" edge="1">
                    <mxGeometry width="50" height="50" relative="1" as="geometry">
                        <mxPoint x="-48.02999999999997" y="360" as="sourcePoint"/>
                        <mxPoint x="1.9700000000000273" y="310" as="targetPoint"/>
                        <Array as="points">
                            <mxPoint x="72" y="345"/>
                        </Array>
                    </mxGeometry>
                </mxCell>
                <mxCell id="E-fx8m8RZ-D9GF5w707M-148" value="Renderiza formulario con correo y nueva contraseña" style="text;html=1;align=center;verticalAlign=middle;whiteSpace=wrap;rounded=0;" parent="E-fx8m8RZ-D9GF5w707M-119" vertex="1">
                    <mxGeometry x="61.97" y="330" width="138.03" height="30" as="geometry"/>
                </mxCell>
                <mxCell id="E-fx8m8RZ-D9GF5w707M-158" value="POST /reset_password" style="text;html=1;align=center;verticalAlign=middle;whiteSpace=wrap;rounded=0;" parent="E-fx8m8RZ-D9GF5w707M-119" vertex="1">
                    <mxGeometry x="91.97000000000003" y="430" width="90" height="30" as="geometry"/>
                </mxCell>
                <mxCell id="E-fx8m8RZ-D9GF5w707M-162" value="Actualización a contraseña nueva hasheada" style="text;html=1;align=center;verticalAlign=middle;whiteSpace=wrap;rounded=0;" parent="E-fx8m8RZ-D9GF5w707M-119" vertex="1">
                    <mxGeometry x="251.97000000000003" y="480" width="140" height="30" as="geometry"/>
                </mxCell>
                <mxCell id="E-fx8m8RZ-D9GF5w707M-166" value="200 OK" style="text;html=1;align=center;verticalAlign=middle;whiteSpace=wrap;rounded=0;" parent="E-fx8m8RZ-D9GF5w707M-119" vertex="1">
                    <mxGeometry x="106.97000000000003" y="570" width="60" height="30" as="geometry"/>
                </mxCell>
                <mxCell id="E-fx8m8RZ-D9GF5w707M-169" value="Redirecciona a el inicio de sesión" style="text;html=1;align=center;verticalAlign=middle;whiteSpace=wrap;rounded=0;" parent="E-fx8m8RZ-D9GF5w707M-119" vertex="1">
                    <mxGeometry x="46.97" y="620" width="133.03" height="30" as="geometry"/>
                </mxCell>
                <mxCell id="E-fx8m8RZ-D9GF5w707M-170" value="&lt;span style=&quot;text-align: left; background-color: rgb(255, 255, 255);&quot;&gt;si usuario no coincide con email&lt;/span&gt;" style="text;html=1;align=center;verticalAlign=middle;whiteSpace=wrap;rounded=0;" parent="E-fx8m8RZ-D9GF5w707M-119" vertex="1">
                    <mxGeometry x="73.03" y="684.53" width="126.97" height="30" as="geometry"/>
                </mxCell>
                <mxCell id="E-fx8m8RZ-D9GF5w707M-174" value="400 bad request, el email no existe en sistema." style="text;html=1;align=center;verticalAlign=middle;whiteSpace=wrap;rounded=0;" parent="E-fx8m8RZ-D9GF5w707M-119" vertex="1">
                    <mxGeometry x="69.38999999999999" y="730" width="160" height="30" as="geometry"/>
                </mxCell>
                <mxCell id="E-fx8m8RZ-D9GF5w707M-177" value="renderiza el error" style="text;html=1;align=center;verticalAlign=middle;whiteSpace=wrap;rounded=0;" parent="E-fx8m8RZ-D9GF5w707M-119" vertex="1">
                    <mxGeometry x="46.97000000000003" y="770" width="60" height="30" as="geometry"/>
                </mxCell>
                <mxCell id="E-fx8m8RZ-D9GF5w707M-122" value="" style="endArrow=none;dashed=1;html=1;rounded=0;entryX=1;entryY=0.5;entryDx=0;entryDy=0;exitX=0;exitY=0.5;exitDx=0;exitDy=0;" parent="1" source="E-fx8m8RZ-D9GF5w707M-130" target="E-fx8m8RZ-D9GF5w707M-116" edge="1">
                    <mxGeometry width="50" height="50" relative="1" as="geometry">
                        <mxPoint x="975" y="3160" as="sourcePoint"/>
                        <mxPoint x="975" y="2681" as="targetPoint"/>
                    </mxGeometry>
                </mxCell>
                <mxCell id="E-fx8m8RZ-D9GF5w707M-116" value="" style="rounded=1;whiteSpace=wrap;html=1;rotation=90;" parent="1" vertex="1">
                    <mxGeometry x="943.91" y="2786.09" width="64.06" height="10" as="geometry"/>
                </mxCell>
                <mxCell id="E-fx8m8RZ-D9GF5w707M-123" value="" style="endArrow=classic;html=1;rounded=0;exitX=0.25;exitY=0;exitDx=0;exitDy=0;entryX=0.5;entryY=0;entryDx=0;entryDy=0;edgeStyle=orthogonalEdgeStyle;curved=1;" parent="1" source="E-fx8m8RZ-D9GF5w707M-116" target="E-fx8m8RZ-D9GF5w707M-116" edge="1">
                    <mxGeometry width="50" height="50" relative="1" as="geometry">
                        <mxPoint x="840" y="2840" as="sourcePoint"/>
                        <mxPoint x="890" y="2790" as="targetPoint"/>
                        <Array as="points">
                            <mxPoint x="1020" y="2780"/>
                        </Array>
                    </mxGeometry>
                </mxCell>
                <mxCell id="E-fx8m8RZ-D9GF5w707M-125" value="" style="endArrow=classic;html=1;rounded=0;exitX=1;exitY=0;exitDx=0;exitDy=0;entryX=0;entryY=0.75;entryDx=0;entryDy=0;" parent="1" source="E-fx8m8RZ-D9GF5w707M-116" target="E-fx8m8RZ-D9GF5w707M-126" edge="1">
                    <mxGeometry width="50" height="50" relative="1" as="geometry">
                        <mxPoint x="940" y="2910" as="sourcePoint"/>
                        <mxPoint x="1150" y="2823" as="targetPoint"/>
                    </mxGeometry>
                </mxCell>
                <mxCell id="E-fx8m8RZ-D9GF5w707M-127" value="" style="endArrow=none;html=1;rounded=0;entryX=1;entryY=0.5;entryDx=0;entryDy=0;exitX=0;exitY=0.5;exitDx=0;exitDy=0;dashed=1;" parent="1" source="E-fx8m8RZ-D9GF5w707M-160" target="E-fx8m8RZ-D9GF5w707M-126" edge="1">
                    <mxGeometry width="50" height="50" relative="1" as="geometry">
                        <mxPoint x="1175" y="3160" as="sourcePoint"/>
                        <mxPoint x="1175" y="2755" as="targetPoint"/>
                    </mxGeometry>
                </mxCell>
                <mxCell id="E-fx8m8RZ-D9GF5w707M-126" value="" style="rounded=1;whiteSpace=wrap;html=1;rotation=90;" parent="1" vertex="1">
                    <mxGeometry x="1151.63" y="2841.35" width="46.75" height="10" as="geometry"/>
                </mxCell>
                <mxCell id="E-fx8m8RZ-D9GF5w707M-131" value="" style="endArrow=none;dashed=1;html=1;rounded=0;entryX=1;entryY=0.5;entryDx=0;entryDy=0;exitX=0;exitY=0.5;exitDx=0;exitDy=0;" parent="1" source="E-fx8m8RZ-D9GF5w707M-156" target="E-fx8m8RZ-D9GF5w707M-130" edge="1">
                    <mxGeometry width="50" height="50" relative="1" as="geometry">
                        <mxPoint x="975" y="3160" as="sourcePoint"/>
                        <mxPoint x="976" y="2823" as="targetPoint"/>
                    </mxGeometry>
                </mxCell>
                <mxCell id="E-fx8m8RZ-D9GF5w707M-133" value="" style="endArrow=classic;html=1;rounded=0;entryX=0;entryY=0;entryDx=0;entryDy=0;exitX=1;exitY=1;exitDx=0;exitDy=0;" parent="1" source="E-fx8m8RZ-D9GF5w707M-126" target="E-fx8m8RZ-D9GF5w707M-130" edge="1">
                    <mxGeometry width="50" height="50" relative="1" as="geometry">
                        <mxPoint x="940" y="2910" as="sourcePoint"/>
                        <mxPoint x="990" y="2860" as="targetPoint"/>
                    </mxGeometry>
                </mxCell>
                <mxCell id="E-fx8m8RZ-D9GF5w707M-135" value="" style="endArrow=none;dashed=1;html=1;rounded=0;entryX=1;entryY=0.5;entryDx=0;entryDy=0;exitX=0;exitY=0.5;exitDx=0;exitDy=0;" parent="1" source="E-fx8m8RZ-D9GF5w707M-144" target="E-fx8m8RZ-D9GF5w707M-134" edge="1">
                    <mxGeometry width="50" height="50" relative="1" as="geometry">
                        <mxPoint x="765" y="3160" as="sourcePoint"/>
                        <mxPoint x="765" y="2650" as="targetPoint"/>
                    </mxGeometry>
                </mxCell>
                <mxCell id="E-fx8m8RZ-D9GF5w707M-134" value="" style="rounded=1;whiteSpace=wrap;html=1;rotation=90;" parent="1" vertex="1">
                    <mxGeometry x="743.25" y="2926.24" width="43.51" height="10" as="geometry"/>
                </mxCell>
                <mxCell id="E-fx8m8RZ-D9GF5w707M-136" value="" style="endArrow=classic;html=1;rounded=0;entryX=0;entryY=0;entryDx=0;entryDy=0;exitX=1;exitY=1;exitDx=0;exitDy=0;" parent="1" source="E-fx8m8RZ-D9GF5w707M-130" target="E-fx8m8RZ-D9GF5w707M-134" edge="1">
                    <mxGeometry width="50" height="50" relative="1" as="geometry">
                        <mxPoint x="840" y="2820" as="sourcePoint"/>
                        <mxPoint x="890" y="2770" as="targetPoint"/>
                    </mxGeometry>
                </mxCell>
                <mxCell id="E-fx8m8RZ-D9GF5w707M-138" value="" style="endArrow=classic;html=1;rounded=0;exitX=0.25;exitY=1;exitDx=0;exitDy=0;entryX=0.75;entryY=1;entryDx=0;entryDy=0;edgeStyle=orthogonalEdgeStyle;curved=1;" parent="1" source="E-fx8m8RZ-D9GF5w707M-134" target="E-fx8m8RZ-D9GF5w707M-134" edge="1">
                    <mxGeometry width="50" height="50" relative="1" as="geometry">
                        <mxPoint x="840" y="2970" as="sourcePoint"/>
                        <mxPoint x="890" y="2920" as="targetPoint"/>
                        <Array as="points">
                            <mxPoint x="740" y="2931"/>
                        </Array>
                    </mxGeometry>
                </mxCell>
                <mxCell id="E-fx8m8RZ-D9GF5w707M-141" value="" style="endArrow=none;dashed=1;html=1;rounded=0;entryX=1;entryY=0.5;entryDx=0;entryDy=0;exitX=0.5;exitY=0;exitDx=0;exitDy=0;" parent="1" source="E-fx8m8RZ-D9GF5w707M-85" target="E-fx8m8RZ-D9GF5w707M-140" edge="1">
                    <mxGeometry width="50" height="50" relative="1" as="geometry">
                        <mxPoint x="563" y="3770" as="sourcePoint"/>
                        <mxPoint x="565" y="2620" as="targetPoint"/>
                    </mxGeometry>
                </mxCell>
                <mxCell id="E-fx8m8RZ-D9GF5w707M-140" value="" style="rounded=1;whiteSpace=wrap;html=1;rotation=90;" parent="1" vertex="1">
                    <mxGeometry x="533.31" y="2979.94" width="63.38" height="10" as="geometry"/>
                </mxCell>
                <mxCell id="E-fx8m8RZ-D9GF5w707M-142" value="" style="endArrow=classic;html=1;rounded=0;exitX=1;exitY=0.5;exitDx=0;exitDy=0;entryX=0;entryY=1;entryDx=0;entryDy=0;" parent="1" source="E-fx8m8RZ-D9GF5w707M-140" target="E-fx8m8RZ-D9GF5w707M-144" edge="1">
                    <mxGeometry width="50" height="50" relative="1" as="geometry">
                        <mxPoint x="620.0049999999999" y="3039.995" as="sourcePoint"/>
                        <mxPoint x="640" y="3010" as="targetPoint"/>
                    </mxGeometry>
                </mxCell>
                <mxCell id="E-fx8m8RZ-D9GF5w707M-145" value="" style="endArrow=none;dashed=1;html=1;rounded=0;entryX=1;entryY=0.5;entryDx=0;entryDy=0;exitX=0;exitY=0.5;exitDx=0;exitDy=0;" parent="1" source="E-fx8m8RZ-D9GF5w707M-152" target="E-fx8m8RZ-D9GF5w707M-144" edge="1">
                    <mxGeometry width="50" height="50" relative="1" as="geometry">
                        <mxPoint x="763" y="3770" as="sourcePoint"/>
                        <mxPoint x="765" y="2953" as="targetPoint"/>
                    </mxGeometry>
                </mxCell>
                <mxCell id="E-fx8m8RZ-D9GF5w707M-146" value="re ingresa codigo de verificación" style="text;html=1;align=center;verticalAlign=middle;whiteSpace=wrap;rounded=0;" parent="1" vertex="1">
                    <mxGeometry x="590" y="2979.94" width="125" height="30" as="geometry"/>
                </mxCell>
                <mxCell id="E-fx8m8RZ-D9GF5w707M-149" value="" style="rounded=1;whiteSpace=wrap;html=1;rotation=90;" parent="1" vertex="1">
                    <mxGeometry x="533.31" y="3080" width="63.38" height="10" as="geometry"/>
                </mxCell>
                <mxCell id="E-fx8m8RZ-D9GF5w707M-151" value="" style="endArrow=classic;html=1;rounded=0;exitX=1;exitY=0;exitDx=0;exitDy=0;entryX=0;entryY=0.75;entryDx=0;entryDy=0;" parent="1" source="E-fx8m8RZ-D9GF5w707M-149" target="E-fx8m8RZ-D9GF5w707M-152" edge="1">
                    <mxGeometry width="50" height="50" relative="1" as="geometry">
                        <mxPoint x="680" y="3130" as="sourcePoint"/>
                        <mxPoint x="690" y="3120" as="targetPoint"/>
                    </mxGeometry>
                </mxCell>
                <mxCell id="E-fx8m8RZ-D9GF5w707M-153" value="" style="endArrow=none;dashed=1;html=1;rounded=0;entryX=1;entryY=0.5;entryDx=0;entryDy=0;exitX=0;exitY=0.5;exitDx=0;exitDy=0;" parent="1" source="E-fx8m8RZ-D9GF5w707M-167" target="E-fx8m8RZ-D9GF5w707M-152" edge="1">
                    <mxGeometry width="50" height="50" relative="1" as="geometry">
                        <mxPoint x="763" y="3770" as="sourcePoint"/>
                        <mxPoint x="765" y="3057" as="targetPoint"/>
                    </mxGeometry>
                </mxCell>
                <mxCell id="E-fx8m8RZ-D9GF5w707M-152" value="" style="rounded=1;whiteSpace=wrap;html=1;rotation=90;" parent="1" vertex="1">
                    <mxGeometry x="742.42" y="3130" width="43.51" height="10" as="geometry"/>
                </mxCell>
                <mxCell id="E-fx8m8RZ-D9GF5w707M-154" value="ingresa correo y nueva contraseña" style="text;html=1;align=center;verticalAlign=middle;whiteSpace=wrap;rounded=0;" parent="1" vertex="1">
                    <mxGeometry x="605.63" y="3080" width="110" height="30" as="geometry"/>
                </mxCell>
                <mxCell id="E-fx8m8RZ-D9GF5w707M-155" value="" style="endArrow=classic;html=1;rounded=0;exitX=1;exitY=0;exitDx=0;exitDy=0;entryX=0;entryY=1;entryDx=0;entryDy=0;" parent="1" source="E-fx8m8RZ-D9GF5w707M-152" target="E-fx8m8RZ-D9GF5w707M-156" edge="1">
                    <mxGeometry width="50" height="50" relative="1" as="geometry">
                        <mxPoint x="810" y="3140" as="sourcePoint"/>
                        <mxPoint x="860" y="3090" as="targetPoint"/>
                    </mxGeometry>
                </mxCell>
                <mxCell id="E-fx8m8RZ-D9GF5w707M-157" value="" style="endArrow=none;dashed=1;html=1;rounded=0;entryX=1;entryY=0.5;entryDx=0;entryDy=0;exitX=0;exitY=0.5;exitDx=0;exitDy=0;" parent="1" source="E-fx8m8RZ-D9GF5w707M-163" target="E-fx8m8RZ-D9GF5w707M-156" edge="1">
                    <mxGeometry width="50" height="50" relative="1" as="geometry">
                        <mxPoint x="973" y="3770" as="sourcePoint"/>
                        <mxPoint x="976" y="2909" as="targetPoint"/>
                    </mxGeometry>
                </mxCell>
                <mxCell id="E-fx8m8RZ-D9GF5w707M-156" value="" style="rounded=1;whiteSpace=wrap;html=1;rotation=90;" parent="1" vertex="1">
                    <mxGeometry x="946.62" y="3176.63" width="56.76" height="10" as="geometry"/>
                </mxCell>
                <mxCell id="E-fx8m8RZ-D9GF5w707M-159" value="" style="endArrow=classic;html=1;rounded=0;exitX=1;exitY=0;exitDx=0;exitDy=0;entryX=0;entryY=1;entryDx=0;entryDy=0;" parent="1" source="E-fx8m8RZ-D9GF5w707M-156" target="E-fx8m8RZ-D9GF5w707M-160" edge="1">
                    <mxGeometry width="50" height="50" relative="1" as="geometry">
                        <mxPoint x="930" y="3180" as="sourcePoint"/>
                        <mxPoint x="1140" y="3210" as="targetPoint"/>
                    </mxGeometry>
                </mxCell>
                <mxCell id="E-fx8m8RZ-D9GF5w707M-161" value="" style="endArrow=none;html=1;rounded=0;entryX=1;entryY=0.5;entryDx=0;entryDy=0;exitX=0.5;exitY=0;exitDx=0;exitDy=0;dashed=1;" parent="1" source="E-fx8m8RZ-D9GF5w707M-88" target="E-fx8m8RZ-D9GF5w707M-160" edge="1">
                    <mxGeometry width="50" height="50" relative="1" as="geometry">
                        <mxPoint x="1173" y="3770" as="sourcePoint"/>
                        <mxPoint x="1175" y="2870" as="targetPoint"/>
                    </mxGeometry>
                </mxCell>
                <mxCell id="E-fx8m8RZ-D9GF5w707M-160" value="" style="rounded=1;whiteSpace=wrap;html=1;rotation=90;" parent="1" vertex="1">
                    <mxGeometry x="1144.96" y="3230" width="56.76" height="10" as="geometry"/>
                </mxCell>
                <mxCell id="E-fx8m8RZ-D9GF5w707M-164" value="" style="endArrow=none;dashed=1;html=1;rounded=0;entryX=1;entryY=0.5;entryDx=0;entryDy=0;exitX=0;exitY=0.5;exitDx=0;exitDy=0;" parent="1" source="E-fx8m8RZ-D9GF5w707M-171" target="E-fx8m8RZ-D9GF5w707M-163" edge="1">
                    <mxGeometry width="50" height="50" relative="1" as="geometry">
                        <mxPoint x="973" y="3770" as="sourcePoint"/>
                        <mxPoint x="975" y="3210" as="targetPoint"/>
                    </mxGeometry>
                </mxCell>
                <mxCell id="E-fx8m8RZ-D9GF5w707M-163" value="" style="rounded=1;whiteSpace=wrap;html=1;rotation=90;" parent="1" vertex="1">
                    <mxGeometry x="958.31" y="3278.31" width="33.38" height="10" as="geometry"/>
                </mxCell>
                <mxCell id="E-fx8m8RZ-D9GF5w707M-165" value="" style="endArrow=classic;html=1;rounded=0;exitX=1;exitY=1;exitDx=0;exitDy=0;entryX=0;entryY=0;entryDx=0;entryDy=0;" parent="1" source="E-fx8m8RZ-D9GF5w707M-163" target="E-fx8m8RZ-D9GF5w707M-167" edge="1">
                    <mxGeometry width="50" height="50" relative="1" as="geometry">
                        <mxPoint x="900" y="3380" as="sourcePoint"/>
                        <mxPoint x="770" y="3290" as="targetPoint"/>
                    </mxGeometry>
                </mxCell>
                <mxCell id="E-fx8m8RZ-D9GF5w707M-168" value="" style="endArrow=none;dashed=1;html=1;rounded=0;entryX=1;entryY=0.5;entryDx=0;entryDy=0;exitX=0;exitY=0.5;exitDx=0;exitDy=0;" parent="1" source="E-fx8m8RZ-D9GF5w707M-175" target="E-fx8m8RZ-D9GF5w707M-167" edge="1">
                    <mxGeometry width="50" height="50" relative="1" as="geometry">
                        <mxPoint x="763" y="3770" as="sourcePoint"/>
                        <mxPoint x="764" y="3157" as="targetPoint"/>
                    </mxGeometry>
                </mxCell>
                <mxCell id="E-fx8m8RZ-D9GF5w707M-167" value="" style="rounded=1;whiteSpace=wrap;html=1;rotation=90;" parent="1" vertex="1">
                    <mxGeometry x="736.43" y="3323.58" width="52.85" height="10" as="geometry"/>
                </mxCell>
                <mxCell id="E-fx8m8RZ-D9GF5w707M-172" value="" style="endArrow=none;dashed=1;html=1;rounded=0;entryX=1;entryY=0.5;entryDx=0;entryDy=0;exitX=0.5;exitY=0;exitDx=0;exitDy=0;" parent="1" source="E-fx8m8RZ-D9GF5w707M-87" target="E-fx8m8RZ-D9GF5w707M-171" edge="1">
                    <mxGeometry width="50" height="50" relative="1" as="geometry">
                        <mxPoint x="973" y="3770" as="sourcePoint"/>
                        <mxPoint x="975" y="3300" as="targetPoint"/>
                    </mxGeometry>
                </mxCell>
                <mxCell id="E-fx8m8RZ-D9GF5w707M-171" value="" style="rounded=1;whiteSpace=wrap;html=1;rotation=90;" parent="1" vertex="1">
                    <mxGeometry x="950" y="3420" width="50" height="10" as="geometry"/>
                </mxCell>
                <mxCell id="E-fx8m8RZ-D9GF5w707M-173" value="" style="endArrow=classic;html=1;rounded=0;exitX=1;exitY=1;exitDx=0;exitDy=0;entryX=0;entryY=0;entryDx=0;entryDy=0;" parent="1" source="E-fx8m8RZ-D9GF5w707M-171" target="E-fx8m8RZ-D9GF5w707M-175" edge="1">
                    <mxGeometry width="50" height="50" relative="1" as="geometry">
                        <mxPoint x="820" y="3470" as="sourcePoint"/>
                        <mxPoint x="780" y="3450" as="targetPoint"/>
                    </mxGeometry>
                </mxCell>
                <mxCell id="E-fx8m8RZ-D9GF5w707M-176" value="" style="endArrow=none;dashed=1;html=1;rounded=0;entryX=1;entryY=0.5;entryDx=0;entryDy=0;exitX=0.5;exitY=0;exitDx=0;exitDy=0;" parent="1" source="E-fx8m8RZ-D9GF5w707M-86" target="E-fx8m8RZ-D9GF5w707M-175" edge="1">
                    <mxGeometry width="50" height="50" relative="1" as="geometry">
                        <mxPoint x="763" y="3770" as="sourcePoint"/>
                        <mxPoint x="763" y="3355" as="targetPoint"/>
                    </mxGeometry>
                </mxCell>
                <mxCell id="E-fx8m8RZ-D9GF5w707M-175" value="" style="rounded=1;whiteSpace=wrap;html=1;rotation=90;" parent="1" vertex="1">
                    <mxGeometry x="738.12" y="3470" width="50" height="10" as="geometry"/>
                </mxCell>
                <mxCell id="E-fx8m8RZ-D9GF5w707M-186" value="BaseModel" style="html=1;whiteSpace=wrap;" parent="1" vertex="1">
                    <mxGeometry x="2200" y="300.7" width="110" height="50" as="geometry"/>
                </mxCell>
                <mxCell id="E-fx8m8RZ-D9GF5w707M-187" value="UserLogIn" style="swimlane;fontStyle=0;childLayout=stackLayout;horizontal=1;startSize=26;fillColor=none;horizontalStack=0;resizeParent=1;resizeParentMax=0;resizeLast=0;collapsible=1;marginBottom=0;whiteSpace=wrap;html=1;" parent="1" vertex="1">
                    <mxGeometry x="2050" y="434.2" width="140" height="78" as="geometry"/>
                </mxCell>
                <mxCell id="E-fx8m8RZ-D9GF5w707M-188" value="+ email : EmailStr" style="text;strokeColor=none;fillColor=none;align=left;verticalAlign=top;spacingLeft=4;spacingRight=4;overflow=hidden;rotatable=0;points=[[0,0.5],[1,0.5]];portConstraint=eastwest;whiteSpace=wrap;html=1;" parent="E-fx8m8RZ-D9GF5w707M-187" vertex="1">
                    <mxGeometry y="26" width="140" height="26" as="geometry"/>
                </mxCell>
                <mxCell id="E-fx8m8RZ-D9GF5w707M-189" value="+ password : str" style="text;strokeColor=none;fillColor=none;align=left;verticalAlign=top;spacingLeft=4;spacingRight=4;overflow=hidden;rotatable=0;points=[[0,0.5],[1,0.5]];portConstraint=eastwest;whiteSpace=wrap;html=1;" parent="E-fx8m8RZ-D9GF5w707M-187" vertex="1">
                    <mxGeometry y="52" width="140" height="26" as="geometry"/>
                </mxCell>
                <mxCell id="E-fx8m8RZ-D9GF5w707M-191" value="UserSigIn" style="swimlane;fontStyle=0;childLayout=stackLayout;horizontal=1;startSize=26;fillColor=none;horizontalStack=0;resizeParent=1;resizeParentMax=0;resizeLast=0;collapsible=1;marginBottom=0;whiteSpace=wrap;html=1;" parent="1" vertex="1">
                    <mxGeometry x="2340" y="434.2" width="140" height="182" as="geometry"/>
                </mxCell>
                <mxCell id="E-fx8m8RZ-D9GF5w707M-192" value="+ username : string" style="text;strokeColor=none;fillColor=none;align=left;verticalAlign=top;spacingLeft=4;spacingRight=4;overflow=hidden;rotatable=0;points=[[0,0.5],[1,0.5]];portConstraint=eastwest;whiteSpace=wrap;html=1;" parent="E-fx8m8RZ-D9GF5w707M-191" vertex="1">
                    <mxGeometry y="26" width="140" height="26" as="geometry"/>
                </mxCell>
                <mxCell id="E-fx8m8RZ-D9GF5w707M-193" value="+ nombre : string" style="text;strokeColor=none;fillColor=none;align=left;verticalAlign=top;spacingLeft=4;spacingRight=4;overflow=hidden;rotatable=0;points=[[0,0.5],[1,0.5]];portConstraint=eastwest;whiteSpace=wrap;html=1;" parent="E-fx8m8RZ-D9GF5w707M-191" vertex="1">
                    <mxGeometry y="52" width="140" height="26" as="geometry"/>
                </mxCell>
                <mxCell id="E-fx8m8RZ-D9GF5w707M-194" value="+ apellido : string" style="text;strokeColor=none;fillColor=none;align=left;verticalAlign=top;spacingLeft=4;spacingRight=4;overflow=hidden;rotatable=0;points=[[0,0.5],[1,0.5]];portConstraint=eastwest;whiteSpace=wrap;html=1;" parent="E-fx8m8RZ-D9GF5w707M-191" vertex="1">
                    <mxGeometry y="78" width="140" height="26" as="geometry"/>
                </mxCell>
                <mxCell id="E-fx8m8RZ-D9GF5w707M-197" value="+ email : EmailStr" style="text;strokeColor=none;fillColor=none;align=left;verticalAlign=top;spacingLeft=4;spacingRight=4;overflow=hidden;rotatable=0;points=[[0,0.5],[1,0.5]];portConstraint=eastwest;whiteSpace=wrap;html=1;" parent="E-fx8m8RZ-D9GF5w707M-191" vertex="1">
                    <mxGeometry y="104" width="140" height="26" as="geometry"/>
                </mxCell>
                <mxCell id="E-fx8m8RZ-D9GF5w707M-198" value="+ password : string" style="text;strokeColor=none;fillColor=none;align=left;verticalAlign=top;spacingLeft=4;spacingRight=4;overflow=hidden;rotatable=0;points=[[0,0.5],[1,0.5]];portConstraint=eastwest;whiteSpace=wrap;html=1;" parent="E-fx8m8RZ-D9GF5w707M-191" vertex="1">
                    <mxGeometry y="130" width="140" height="26" as="geometry"/>
                </mxCell>
                <mxCell id="E-fx8m8RZ-D9GF5w707M-199" value="+ plan : TypePlan" style="text;strokeColor=none;fillColor=none;align=left;verticalAlign=top;spacingLeft=4;spacingRight=4;overflow=hidden;rotatable=0;points=[[0,0.5],[1,0.5]];portConstraint=eastwest;whiteSpace=wrap;html=1;" parent="E-fx8m8RZ-D9GF5w707M-191" vertex="1">
                    <mxGeometry y="156" width="140" height="26" as="geometry"/>
                </mxCell>
                <mxCell id="E-fx8m8RZ-D9GF5w707M-195" value="Extends" style="endArrow=block;endSize=16;endFill=0;html=1;rounded=0;entryX=0.5;entryY=1;entryDx=0;entryDy=0;" parent="1" target="E-fx8m8RZ-D9GF5w707M-186" edge="1">
                    <mxGeometry width="160" relative="1" as="geometry">
                        <mxPoint x="2255" y="420.7" as="sourcePoint"/>
                        <mxPoint x="2330" y="420.7" as="targetPoint"/>
                    </mxGeometry>
                </mxCell>
                <mxCell id="E-fx8m8RZ-D9GF5w707M-196" value="" style="endArrow=none;html=1;rounded=0;exitX=0.5;exitY=0;exitDx=0;exitDy=0;entryX=0.5;entryY=0;entryDx=0;entryDy=0;edgeStyle=elbowEdgeStyle;" parent="1" source="E-fx8m8RZ-D9GF5w707M-187" target="E-fx8m8RZ-D9GF5w707M-191" edge="1">
                    <mxGeometry width="50" height="50" relative="1" as="geometry">
                        <mxPoint x="2230" y="450.7" as="sourcePoint"/>
                        <mxPoint x="2280" y="400.7" as="targetPoint"/>
                        <Array as="points">
                            <mxPoint x="2270" y="420.7"/>
                        </Array>
                    </mxGeometry>
                </mxCell>
                <mxCell id="E-fx8m8RZ-D9GF5w707M-200" value="TypePlan" style="swimlane;fontStyle=0;childLayout=stackLayout;horizontal=1;startSize=26;fillColor=none;horizontalStack=0;resizeParent=1;resizeParentMax=0;resizeLast=0;collapsible=1;marginBottom=0;whiteSpace=wrap;html=1;" parent="1" vertex="1">
                    <mxGeometry x="2661" y="590.45" width="140" height="104" as="geometry"/>
                </mxCell>
                <mxCell id="E-fx8m8RZ-D9GF5w707M-201" value="+ BASIC : string" style="text;strokeColor=none;fillColor=none;align=left;verticalAlign=top;spacingLeft=4;spacingRight=4;overflow=hidden;rotatable=0;points=[[0,0.5],[1,0.5]];portConstraint=eastwest;whiteSpace=wrap;html=1;" parent="E-fx8m8RZ-D9GF5w707M-200" vertex="1">
                    <mxGeometry y="26" width="140" height="26" as="geometry"/>
                </mxCell>
                <mxCell id="E-fx8m8RZ-D9GF5w707M-202" value="+ MEDIUM : string" style="text;strokeColor=none;fillColor=none;align=left;verticalAlign=top;spacingLeft=4;spacingRight=4;overflow=hidden;rotatable=0;points=[[0,0.5],[1,0.5]];portConstraint=eastwest;whiteSpace=wrap;html=1;" parent="E-fx8m8RZ-D9GF5w707M-200" vertex="1">
                    <mxGeometry y="52" width="140" height="26" as="geometry"/>
                </mxCell>
                <mxCell id="E-fx8m8RZ-D9GF5w707M-203" value="+ PRO : string" style="text;strokeColor=none;fillColor=none;align=left;verticalAlign=top;spacingLeft=4;spacingRight=4;overflow=hidden;rotatable=0;points=[[0,0.5],[1,0.5]];portConstraint=eastwest;whiteSpace=wrap;html=1;" parent="E-fx8m8RZ-D9GF5w707M-200" vertex="1">
                    <mxGeometry y="78" width="140" height="26" as="geometry"/>
                </mxCell>
                <mxCell id="E-fx8m8RZ-D9GF5w707M-204" value="" style="endArrow=diamondThin;endFill=1;endSize=24;html=1;rounded=0;entryX=1;entryY=0.5;entryDx=0;entryDy=0;exitX=0.003;exitY=0.11;exitDx=0;exitDy=0;exitPerimeter=0;" parent="1" source="E-fx8m8RZ-D9GF5w707M-200" target="E-fx8m8RZ-D9GF5w707M-199" edge="1">
                    <mxGeometry width="160" relative="1" as="geometry">
                        <mxPoint x="2370" y="560.7" as="sourcePoint"/>
                        <mxPoint x="2530" y="560.7" as="targetPoint"/>
                    </mxGeometry>
                </mxCell>
                <mxCell id="E-fx8m8RZ-D9GF5w707M-205" value="1..1" style="text;html=1;align=center;verticalAlign=middle;whiteSpace=wrap;rounded=0;" parent="1" vertex="1">
                    <mxGeometry x="2540" y="574.7" width="60" height="30" as="geometry"/>
                </mxCell>
                <mxCell id="E-fx8m8RZ-D9GF5w707M-206" value="StrEnum" style="html=1;whiteSpace=wrap;" parent="1" vertex="1">
                    <mxGeometry x="2840" y="430.7" width="110" height="50" as="geometry"/>
                </mxCell>
                <mxCell id="E-fx8m8RZ-D9GF5w707M-208" value="Document" style="html=1;whiteSpace=wrap;" parent="1" vertex="1">
                    <mxGeometry x="2380" y="738.7" width="110" height="50" as="geometry"/>
                </mxCell>
                <mxCell id="E-fx8m8RZ-D9GF5w707M-213" value="UserDocument" style="swimlane;fontStyle=0;childLayout=stackLayout;horizontal=1;startSize=26;fillColor=none;horizontalStack=0;resizeParent=1;resizeParentMax=0;resizeLast=0;collapsible=1;marginBottom=0;whiteSpace=wrap;html=1;" parent="1" vertex="1">
                    <mxGeometry x="2170" y="910.7" width="140" height="182" as="geometry"/>
                </mxCell>
                <mxCell id="E-fx8m8RZ-D9GF5w707M-214" value="+ username : string" style="text;strokeColor=none;fillColor=none;align=left;verticalAlign=top;spacingLeft=4;spacingRight=4;overflow=hidden;rotatable=0;points=[[0,0.5],[1,0.5]];portConstraint=eastwest;whiteSpace=wrap;html=1;" parent="E-fx8m8RZ-D9GF5w707M-213" vertex="1">
                    <mxGeometry y="26" width="140" height="26" as="geometry"/>
                </mxCell>
                <mxCell id="E-fx8m8RZ-D9GF5w707M-215" value="+ nombre : string" style="text;strokeColor=none;fillColor=none;align=left;verticalAlign=top;spacingLeft=4;spacingRight=4;overflow=hidden;rotatable=0;points=[[0,0.5],[1,0.5]];portConstraint=eastwest;whiteSpace=wrap;html=1;" parent="E-fx8m8RZ-D9GF5w707M-213" vertex="1">
                    <mxGeometry y="52" width="140" height="26" as="geometry"/>
                </mxCell>
                <mxCell id="E-fx8m8RZ-D9GF5w707M-216" value="+ apellido : string" style="text;strokeColor=none;fillColor=none;align=left;verticalAlign=top;spacingLeft=4;spacingRight=4;overflow=hidden;rotatable=0;points=[[0,0.5],[1,0.5]];portConstraint=eastwest;whiteSpace=wrap;html=1;" parent="E-fx8m8RZ-D9GF5w707M-213" vertex="1">
                    <mxGeometry y="78" width="140" height="26" as="geometry"/>
                </mxCell>
                <mxCell id="E-fx8m8RZ-D9GF5w707M-217" value="+ email : EmailStr" style="text;strokeColor=none;fillColor=none;align=left;verticalAlign=top;spacingLeft=4;spacingRight=4;overflow=hidden;rotatable=0;points=[[0,0.5],[1,0.5]];portConstraint=eastwest;whiteSpace=wrap;html=1;" parent="E-fx8m8RZ-D9GF5w707M-213" vertex="1">
                    <mxGeometry y="104" width="140" height="26" as="geometry"/>
                </mxCell>
                <mxCell id="E-fx8m8RZ-D9GF5w707M-218" value="+ password : string" style="text;strokeColor=none;fillColor=none;align=left;verticalAlign=top;spacingLeft=4;spacingRight=4;overflow=hidden;rotatable=0;points=[[0,0.5],[1,0.5]];portConstraint=eastwest;whiteSpace=wrap;html=1;" parent="E-fx8m8RZ-D9GF5w707M-213" vertex="1">
                    <mxGeometry y="130" width="140" height="26" as="geometry"/>
                </mxCell>
                <mxCell id="E-fx8m8RZ-D9GF5w707M-219" value="+ plan : Link[Plan]" style="text;strokeColor=none;fillColor=none;align=left;verticalAlign=top;spacingLeft=4;spacingRight=4;overflow=hidden;rotatable=0;points=[[0,0.5],[1,0.5]];portConstraint=eastwest;whiteSpace=wrap;html=1;" parent="E-fx8m8RZ-D9GF5w707M-213" vertex="1">
                    <mxGeometry y="156" width="140" height="26" as="geometry"/>
                </mxCell>
                <mxCell id="E-fx8m8RZ-D9GF5w707M-220" value="PlanDocument" style="swimlane;fontStyle=0;childLayout=stackLayout;horizontal=1;startSize=26;fillColor=none;horizontalStack=0;resizeParent=1;resizeParentMax=0;resizeLast=0;collapsible=1;marginBottom=0;whiteSpace=wrap;html=1;" parent="1" vertex="1">
                    <mxGeometry x="2530" y="910.7" width="270" height="182" as="geometry"/>
                </mxCell>
                <mxCell id="E-fx8m8RZ-D9GF5w707M-221" value="+ type : TypePlan" style="text;strokeColor=none;fillColor=none;align=left;verticalAlign=top;spacingLeft=4;spacingRight=4;overflow=hidden;rotatable=0;points=[[0,0.5],[1,0.5]];portConstraint=eastwest;whiteSpace=wrap;html=1;" parent="E-fx8m8RZ-D9GF5w707M-220" vertex="1">
                    <mxGeometry y="26" width="270" height="26" as="geometry"/>
                </mxCell>
                <mxCell id="E-fx8m8RZ-D9GF5w707M-222" value="+ unity_memory : UnityMemory" style="text;strokeColor=none;fillColor=none;align=left;verticalAlign=top;spacingLeft=4;spacingRight=4;overflow=hidden;rotatable=0;points=[[0,0.5],[1,0.5]];portConstraint=eastwest;whiteSpace=wrap;html=1;" parent="E-fx8m8RZ-D9GF5w707M-220" vertex="1">
                    <mxGeometry y="52" width="270" height="26" as="geometry"/>
                </mxCell>
                <mxCell id="E-fx8m8RZ-D9GF5w707M-223" value="+ limit_memory : int" style="text;strokeColor=none;fillColor=none;align=left;verticalAlign=top;spacingLeft=4;spacingRight=4;overflow=hidden;rotatable=0;points=[[0,0.5],[1,0.5]];portConstraint=eastwest;whiteSpace=wrap;html=1;" parent="E-fx8m8RZ-D9GF5w707M-220" vertex="1">
                    <mxGeometry y="78" width="270" height="26" as="geometry"/>
                </mxCell>
                <mxCell id="E-fx8m8RZ-D9GF5w707M-224" value="+ users_subs : List[BackLink[UserDocument]]" style="text;strokeColor=none;fillColor=none;align=left;verticalAlign=top;spacingLeft=4;spacingRight=4;overflow=hidden;rotatable=0;points=[[0,0.5],[1,0.5]];portConstraint=eastwest;whiteSpace=wrap;html=1;" parent="E-fx8m8RZ-D9GF5w707M-220" vertex="1">
                    <mxGeometry y="104" width="270" height="26" as="geometry"/>
                </mxCell>
                <mxCell id="E-fx8m8RZ-D9GF5w707M-225" value="+ created_at : DateTime" style="text;strokeColor=none;fillColor=none;align=left;verticalAlign=top;spacingLeft=4;spacingRight=4;overflow=hidden;rotatable=0;points=[[0,0.5],[1,0.5]];portConstraint=eastwest;whiteSpace=wrap;html=1;" parent="E-fx8m8RZ-D9GF5w707M-220" vertex="1">
                    <mxGeometry y="130" width="270" height="26" as="geometry"/>
                </mxCell>
                <mxCell id="E-fx8m8RZ-D9GF5w707M-226" value="+ updated_at : DateTime" style="text;strokeColor=none;fillColor=none;align=left;verticalAlign=top;spacingLeft=4;spacingRight=4;overflow=hidden;rotatable=0;points=[[0,0.5],[1,0.5]];portConstraint=eastwest;whiteSpace=wrap;html=1;" parent="E-fx8m8RZ-D9GF5w707M-220" vertex="1">
                    <mxGeometry y="156" width="270" height="26" as="geometry"/>
                </mxCell>
                <mxCell id="E-fx8m8RZ-D9GF5w707M-228" value="Settings" style="swimlane;fontStyle=0;childLayout=stackLayout;horizontal=1;startSize=26;fillColor=none;horizontalStack=0;resizeParent=1;resizeParentMax=0;resizeLast=0;collapsible=1;marginBottom=0;whiteSpace=wrap;html=1;" parent="1" vertex="1">
                    <mxGeometry x="2300" y="1198.7" width="270" height="52" as="geometry"/>
                </mxCell>
                <mxCell id="E-fx8m8RZ-D9GF5w707M-229" value="+ name : string" style="text;strokeColor=none;fillColor=none;align=left;verticalAlign=top;spacingLeft=4;spacingRight=4;overflow=hidden;rotatable=0;points=[[0,0.5],[1,0.5]];portConstraint=eastwest;whiteSpace=wrap;html=1;" parent="E-fx8m8RZ-D9GF5w707M-228" vertex="1">
                    <mxGeometry y="26" width="270" height="26" as="geometry"/>
                </mxCell>
                <mxCell id="E-fx8m8RZ-D9GF5w707M-235" value="" style="endArrow=open;endSize=12;dashed=1;html=1;rounded=0;edgeStyle=orthogonalEdgeStyle;exitX=0.546;exitY=1.024;exitDx=0;exitDy=0;exitPerimeter=0;" parent="1" source="E-fx8m8RZ-D9GF5w707M-226" edge="1">
                    <mxGeometry width="160" relative="1" as="geometry">
                        <mxPoint x="2680" y="1100.7" as="sourcePoint"/>
                        <mxPoint x="2569.43" y="1225.65" as="targetPoint"/>
                        <Array as="points">
                            <mxPoint x="2680" y="1093.7"/>
                            <mxPoint x="2680" y="1225.7"/>
                        </Array>
                    </mxGeometry>
                </mxCell>
                <mxCell id="E-fx8m8RZ-D9GF5w707M-236" value="" style="endArrow=open;endSize=12;dashed=1;html=1;rounded=0;edgeStyle=elbowEdgeStyle;elbow=vertical;entryX=0;entryY=0.5;entryDx=0;entryDy=0;exitX=0.456;exitY=1.056;exitDx=0;exitDy=0;exitPerimeter=0;" parent="1" source="E-fx8m8RZ-D9GF5w707M-219" target="E-fx8m8RZ-D9GF5w707M-229" edge="1">
                    <mxGeometry width="160" relative="1" as="geometry">
                        <mxPoint x="2250" y="1270.7" as="sourcePoint"/>
                        <mxPoint x="2220" y="1130.7" as="targetPoint"/>
                        <Array as="points">
                            <mxPoint x="2210" y="1237.7"/>
                            <mxPoint x="2260" y="1240.7"/>
                        </Array>
                    </mxGeometry>
                </mxCell>
                <mxCell id="E-fx8m8RZ-D9GF5w707M-237" value="Extends" style="endArrow=block;endSize=16;endFill=0;html=1;rounded=0;entryX=0.5;entryY=1;entryDx=0;entryDy=0;" parent="1" target="E-fx8m8RZ-D9GF5w707M-208" edge="1">
                    <mxGeometry width="160" relative="1" as="geometry">
                        <mxPoint x="2435" y="860.7" as="sourcePoint"/>
                        <mxPoint x="2440" y="840.7" as="targetPoint"/>
                    </mxGeometry>
                </mxCell>
                <mxCell id="E-fx8m8RZ-D9GF5w707M-238" value="" style="endArrow=none;html=1;rounded=0;exitX=0.5;exitY=0;exitDx=0;exitDy=0;entryX=0.5;entryY=0;entryDx=0;entryDy=0;edgeStyle=elbowEdgeStyle;" parent="1" source="E-fx8m8RZ-D9GF5w707M-213" target="E-fx8m8RZ-D9GF5w707M-220" edge="1">
                    <mxGeometry width="50" height="50" relative="1" as="geometry">
                        <mxPoint x="2540" y="870.7" as="sourcePoint"/>
                        <mxPoint x="2590" y="820.7" as="targetPoint"/>
                        <Array as="points">
                            <mxPoint x="2450" y="860.7"/>
                        </Array>
                    </mxGeometry>
                </mxCell>
                <mxCell id="E-fx8m8RZ-D9GF5w707M-239" value="UnityMemory" style="swimlane;fontStyle=0;childLayout=stackLayout;horizontal=1;startSize=26;fillColor=none;horizontalStack=0;resizeParent=1;resizeParentMax=0;resizeLast=0;collapsible=1;marginBottom=0;whiteSpace=wrap;html=1;" parent="1" vertex="1">
                    <mxGeometry x="2960" y="590.45" width="140" height="78" as="geometry"/>
                </mxCell>
                <mxCell id="E-fx8m8RZ-D9GF5w707M-240" value="+ MEGABYTES: string" style="text;strokeColor=none;fillColor=none;align=left;verticalAlign=top;spacingLeft=4;spacingRight=4;overflow=hidden;rotatable=0;points=[[0,0.5],[1,0.5]];portConstraint=eastwest;whiteSpace=wrap;html=1;" parent="E-fx8m8RZ-D9GF5w707M-239" vertex="1">
                    <mxGeometry y="26" width="140" height="26" as="geometry"/>
                </mxCell>
                <mxCell id="E-fx8m8RZ-D9GF5w707M-241" value="+ GIGABYTES: string" style="text;strokeColor=none;fillColor=none;align=left;verticalAlign=top;spacingLeft=4;spacingRight=4;overflow=hidden;rotatable=0;points=[[0,0.5],[1,0.5]];portConstraint=eastwest;whiteSpace=wrap;html=1;" parent="E-fx8m8RZ-D9GF5w707M-239" vertex="1">
                    <mxGeometry y="52" width="140" height="26" as="geometry"/>
                </mxCell>
                <mxCell id="E-fx8m8RZ-D9GF5w707M-243" value="Extends" style="endArrow=block;endSize=16;endFill=0;html=1;rounded=0;entryX=0.5;entryY=1;entryDx=0;entryDy=0;" parent="1" target="E-fx8m8RZ-D9GF5w707M-206" edge="1">
                    <mxGeometry width="160" relative="1" as="geometry">
                        <mxPoint x="2895" y="550.7" as="sourcePoint"/>
                        <mxPoint x="3120" y="700.7" as="targetPoint"/>
                    </mxGeometry>
                </mxCell>
                <mxCell id="E-fx8m8RZ-D9GF5w707M-244" value="" style="endArrow=none;html=1;rounded=0;exitX=0.5;exitY=0;exitDx=0;exitDy=0;entryX=0.5;entryY=0;entryDx=0;entryDy=0;edgeStyle=elbowEdgeStyle;elbow=vertical;" parent="1" source="E-fx8m8RZ-D9GF5w707M-200" target="E-fx8m8RZ-D9GF5w707M-239" edge="1">
                    <mxGeometry width="50" height="50" relative="1" as="geometry">
                        <mxPoint x="3010" y="730.7" as="sourcePoint"/>
                        <mxPoint x="3060" y="680.7" as="targetPoint"/>
                        <Array as="points">
                            <mxPoint x="2880" y="550.7"/>
                        </Array>
                    </mxGeometry>
                </mxCell>
                <mxCell id="E-fx8m8RZ-D9GF5w707M-245" value="" style="endArrow=diamondThin;endFill=1;endSize=24;html=1;rounded=0;exitX=1;exitY=0.114;exitDx=0;exitDy=0;exitPerimeter=0;entryX=1;entryY=0.5;entryDx=0;entryDy=0;edgeStyle=elbowEdgeStyle;" parent="1" source="E-fx8m8RZ-D9GF5w707M-200" target="E-fx8m8RZ-D9GF5w707M-221" edge="1">
                    <mxGeometry width="160" relative="1" as="geometry">
                        <mxPoint x="2620" y="850.7" as="sourcePoint"/>
                        <mxPoint x="2780" y="850.7" as="targetPoint"/>
                        <Array as="points">
                            <mxPoint x="2850" y="780.7"/>
                        </Array>
                    </mxGeometry>
                </mxCell>
                <mxCell id="E-fx8m8RZ-D9GF5w707M-246" value="" style="endArrow=diamondThin;endFill=1;endSize=24;html=1;rounded=0;exitX=0;exitY=0.25;exitDx=0;exitDy=0;entryX=1;entryY=0.5;entryDx=0;entryDy=0;edgeStyle=elbowEdgeStyle;" parent="1" source="E-fx8m8RZ-D9GF5w707M-239" target="E-fx8m8RZ-D9GF5w707M-222" edge="1">
                    <mxGeometry width="160" relative="1" as="geometry">
                        <mxPoint x="2620" y="850.7" as="sourcePoint"/>
                        <mxPoint x="2780" y="850.7" as="targetPoint"/>
                        <Array as="points">
                            <mxPoint x="2920" y="800.7"/>
                        </Array>
                    </mxGeometry>
                </mxCell>
                <mxCell id="E-fx8m8RZ-D9GF5w707M-247" value="1..1" style="text;html=1;align=center;verticalAlign=middle;whiteSpace=wrap;rounded=0;" parent="1" vertex="1">
                    <mxGeometry x="2770" y="778.7" width="60" height="30" as="geometry"/>
                </mxCell>
                <mxCell id="E-fx8m8RZ-D9GF5w707M-248" value="1..1" style="text;html=1;align=center;verticalAlign=middle;whiteSpace=wrap;rounded=0;" parent="1" vertex="1">
                    <mxGeometry x="2860" y="788.7" width="60" height="30" as="geometry"/>
                </mxCell>
                <mxCell id="E-fx8m8RZ-D9GF5w707M-249" value="BaseModel pertenece a una dependencia del proyecto llamada pydantic, la cual se encarga de la serialización y permite definir tipos en especifico, así como tambien es la encargada de validar los datos que llegan a los enpoint de la API, posee toda la funcionalidad de verificación aplicando herencia (de ahí salen los subtipos personalizados)." style="shape=note2;boundedLbl=1;whiteSpace=wrap;html=1;size=25;verticalAlign=top;align=center;" parent="1" vertex="1">
                    <mxGeometry x="2380" y="190" width="225" height="185.17" as="geometry"/>
                </mxCell>
                <mxCell id="E-fx8m8RZ-D9GF5w707M-252" value="Document es una base general proporcionada por un ODM, llamado Beanie para MongoDB, la cual se encarga de mapear todos las subclases que heredan de ella a la base de datos, así como tambien permite las consultas , actualizaciones , eliminaciones, etc. además de eso permite asincronia para no bloquear el hilo cuando la I/O es fundamental&lt;span style=&quot;background-color: initial;&quot;&gt;.&lt;/span&gt;&lt;div&gt;&lt;span style=&quot;background-color: initial;&quot;&gt;Tambien otorga tipos de datos Link y BackLink que manejan las relaciones directas y reversas entre colecciones.&lt;/span&gt;&lt;/div&gt;" style="shape=note2;boundedLbl=1;whiteSpace=wrap;html=1;size=25;verticalAlign=top;align=center;" parent="1" vertex="1">
                    <mxGeometry x="2068" y="640" width="280" height="201.3" as="geometry"/>
                </mxCell>
                <mxCell id="E-fx8m8RZ-D9GF5w707M-253" value="Settings es una nested class o clase anidada de Document, para establecer los metadatos de la colleción, por ejemplo su nombre , etc. se definio con una relación de dependencia dado que en UML no existe una forma de definir correctamente el patrón de clase anidada." style="shape=note2;boundedLbl=1;whiteSpace=wrap;html=1;size=25;verticalAlign=top;align=center;" parent="1" vertex="1">
                    <mxGeometry x="2290" y="1276.88" width="280" height="150" as="geometry"/>
                </mxCell>
            </root>
        </mxGraphModel>
    </diagram>
</mxfile>